<?xml version="1.0" standalone="no"?>
<!DOCTYPE svg PUBLIC "-//W3C//DTD SVG 20010904//EN"
 "http://www.w3.org/TR/2001/REC-SVG-20010904/DTD/svg10.dtd">
<svg version="1.0" xmlns="http://www.w3.org/2000/svg"
 width="1352.000000pt" height="2948.000000pt" viewBox="0 0 1352.000000 2948.000000"
 preserveAspectRatio="xMidYMid meet">

<g transform="translate(0.000000,2948.000000) scale(0.100000,-0.100000)"
fill="#000000" stroke="none">
<path d="M5510 19694 c-178 -9 -438 -51 -565 -91 -163 -51 -538 -223 -696
-320 -138 -85 -372 -246 -471 -325 -180 -143 -389 -365 -529 -563 -63 -89
-171 -277 -226 -395 -147 -312 -225 -674 -254 -1174 -19 -314 7 -803 67 -1271
30 -235 84 -413 199 -652 137 -285 264 -472 441 -649 99 -99 130 -124 290
-238 92 -65 97 -72 185 -296 29 -74 99 -225 155 -336 149 -296 259 -465 419
-644 46 -52 92 -110 102 -128 18 -33 18 -33 -16 -97 -54 -105 -113 -138 -466
-261 -159 -55 -328 -117 -375 -137 -47 -19 -141 -59 -210 -88 -264 -110 -375
-184 -545 -361 -283 -294 -518 -695 -644 -1096 -112 -357 -154 -584 -246
-1325 -20 -159 -42 -325 -50 -370 -22 -130 -92 -631 -106 -755 -9 -84 -9 -116
0 -125 8 -8 278 -13 963 -19 524 -4 965 -5 980 -2 15 3 29 13 32 22 64 211 92
381 116 687 14 180 23 225 45 225 43 0 73 -86 239 -692 40 -143 66 -201 99
-220 18 -10 401 -13 1942 -15 1056 -2 1992 0 2079 5 154 7 159 8 177 32 26 35
47 124 64 270 30 248 56 445 60 458 5 14 34 196 65 407 11 72 31 207 44 300
37 250 64 570 76 920 16 436 36 671 61 706 11 15 29 31 40 34 52 17 176 -33
302 -122 101 -71 362 -280 477 -381 234 -207 259 -230 600 -557 129 -124 361
-338 440 -406 287 -250 637 -409 897 -409 116 0 192 16 342 70 161 59 241 110
356 225 139 140 277 397 321 600 22 101 22 295 1 465 -42 333 -106 762 -152
1020 -20 113 -43 243 -50 290 -7 47 -25 153 -40 235 -14 83 -40 233 -56 335
-57 358 -71 437 -111 610 -49 212 -79 298 -155 438 -84 154 -94 180 -87 218
10 53 -15 170 -62 289 -63 163 -82 248 -89 415 -7 160 4 248 33 265 9 5 51 24
94 41 74 30 140 77 204 146 74 78 229 307 354 523 87 149 151 241 307 435 235
294 383 515 383 572 0 65 -44 123 -120 157 -56 26 -84 26 -138 1 -54 -25 -67
-39 -229 -255 -133 -178 -168 -224 -260 -340 -26 -33 -38 -53 -28 -45 43 32
151 147 162 173 7 15 20 30 28 33 8 4 15 17 15 30 0 14 6 24 14 24 7 0 19 13
26 29 6 16 18 32 26 35 8 3 14 11 14 18 0 15 248 271 270 278 38 12 106 4 130
-15 20 -16 25 -28 23 -64 -1 -24 -8 -51 -15 -60 -8 -9 -20 -29 -28 -46 -8 -16
-28 -48 -46 -70 -17 -22 -43 -63 -57 -92 -15 -28 -32 -55 -38 -58 -6 -4 -18
-19 -27 -34 -9 -15 -29 -43 -45 -62 -26 -32 -47 -61 -114 -152 -15 -21 -48
-62 -73 -90 -25 -29 -58 -70 -75 -90 -16 -21 -58 -67 -92 -103 -35 -36 -63
-67 -63 -70 0 -7 -4 -11 -140 -165 -40 -45 -51 -59 -46 -59 2 0 -17 -21 -42
-47 -26 -27 -58 -64 -72 -83 -23 -32 -52 -64 -166 -182 -64 -66 -122 -111
-160 -124 -19 -6 -89 -12 -156 -12 -227 -1 -314 -37 -309 -128 1 -19 9 -23 59
-28 126 -14 132 -16 132 -41 0 -26 -22 -48 -53 -52 -12 -2 -25 -10 -30 -18 -4
-9 -12 -13 -18 -10 -8 5 -14 -15 -10 -37 2 -14 -81 -12 -89 2 -3 5 -19 10 -35
12 -36 4 -45 14 -45 50 0 14 -3 33 -6 42 -9 23 -41 20 -49 -4 -3 -11 -13 -20
-21 -20 -8 0 -13 -4 -9 -9 3 -5 -4 -12 -15 -16 -11 -3 -20 -11 -20 -17 0 -6
-9 -3 -20 7 -19 18 -20 17 -20 -4 0 -18 -2 -20 -19 -9 -11 7 -19 17 -18 22 1
6 -7 10 -18 9 -27 -2 -115 27 -115 38 0 5 -24 9 -52 9 -38 0 -49 3 -38 10 8 5
16 14 16 20 1 5 3 11 4 13 1 1 4 18 6 37 6 45 11 74 14 78 8 7 4 68 -4 74 -6
4 -5 12 2 20 14 17 10 40 -14 94 -9 21 -16 42 -16 47 1 4 -2 7 -7 7 -5 0 -9
10 -9 23 0 12 -3 33 -7 47 -3 14 -7 31 -7 38 -1 6 -5 12 -10 12 -5 0 -7 14 -3
30 4 20 2 37 -6 46 -9 11 -10 17 -1 23 14 8 -3 92 -21 103 -9 6 -8 8 2 8 9 0
0 14 -21 33 -19 17 -38 40 -41 50 -4 9 -13 17 -22 17 -8 0 -15 6 -15 13 0 8
-11 24 -25 37 -13 12 -24 25 -23 29 1 3 -7 23 -16 44 -9 22 -19 55 -21 75 -2
21 -9 51 -16 67 -7 17 -13 48 -15 70 -1 22 -4 51 -8 64 -3 14 -8 47 -11 74 -3
28 -8 54 -11 58 -3 5 -7 21 -9 36 -2 16 -8 60 -14 98 -6 39 -9 113 -6 165 3
52 6 134 8 183 2 86 1 88 -28 112 -17 13 -41 27 -55 30 -30 8 -147 85 -190
125 -18 17 -35 30 -39 30 -13 0 -58 55 -70 86 -13 34 -3 73 27 108 9 11 12 16
6 13 -7 -4 -17 -1 -23 7 -9 11 -6 15 13 18 14 3 29 2 33 -2 4 -3 18 4 30 17
20 20 20 23 4 23 -9 0 -42 -12 -72 -27 -67 -35 -103 -94 -96 -160 5 -51 70
-156 159 -258 120 -138 132 -197 129 -614 -2 -343 4 -429 50 -646 39 -184 77
-307 145 -462 67 -153 92 -223 87 -241 -3 -7 -27 -24 -54 -38 -28 -14 -53 -32
-56 -40 -5 -13 3 -137 22 -357 5 -60 -9 -236 -34 -431 -17 -131 -18 -154 -5
-194 11 -40 11 -56 -2 -117 -8 -38 -23 -110 -33 -160 -19 -90 -34 -263 -50
-573 -4 -90 -12 -167 -18 -173 -15 -15 -87 39 -238 183 -295 279 -399 368
-561 476 -265 177 -455 270 -644 317 -273 68 -363 84 -520 92 -136 6 -207 -4
-330 -50 -36 -14 -84 -28 -107 -32 -40 -6 -43 -5 -43 15 0 12 11 65 24 118 40
159 56 267 67 462 11 204 6 345 -18 552 -18 160 -15 178 51 326 118 263 156
462 156 823 0 181 -10 300 -46 524 -55 341 -102 513 -236 860 -38 99 -98 259
-132 355 -210 585 -491 1063 -797 1355 -242 230 -457 362 -844 518 -88 36
-187 81 -220 101 -33 20 -75 41 -95 46 -119 32 -365 52 -530 44z m550 -1866
c0 -6 -9 -8 -20 -5 -11 3 -20 1 -20 -4 0 -12 49 -31 60 -24 5 3 15 -1 23 -9 7
-8 49 -33 93 -55 79 -41 149 -85 241 -150 86 -62 376 -317 465 -410 l86 -91
-101 1 c-192 1 -383 -46 -484 -120 -47 -34 -54 -61 -27 -99 30 -44 52 -43 180
3 150 54 238 69 379 61 61 -3 121 -7 135 -9 14 -3 29 -5 33 -6 5 0 5 -6 1 -13
-4 -6 -3 -8 3 -5 13 8 53 -21 53 -39 0 -8 5 -12 10 -9 6 3 10 1 10 -4 0 -37
95 -81 173 -81 89 0 199 -32 257 -75 71 -52 166 -182 147 -201 -2 -2 -16 14
-31 36 -15 23 -51 65 -80 94 -45 45 -65 57 -134 80 -45 14 -92 26 -106 26 -13
0 -26 5 -28 12 -5 14 -58 2 -58 -14 0 -6 11 -25 24 -42 47 -63 93 -168 76
-174 -6 -2 -10 -10 -10 -18 0 -9 5 -12 10 -9 6 3 10 1 10 -4 0 -6 -5 -11 -10
-11 -7 0 -7 -7 1 -21 9 -17 8 -20 -3 -16 -7 2 -21 -2 -30 -11 -13 -11 -18 -12
-18 -2 0 10 -3 10 -15 0 -12 -10 -18 -10 -30 0 -9 7 -30 14 -47 15 -17 2 -33
7 -37 11 -3 5 -22 10 -41 12 -19 2 -64 7 -100 11 -36 5 -111 7 -168 6 -56 -2
-105 1 -108 6 -3 5 -13 5 -24 -1 -16 -8 -18 -8 -14 5 4 10 0 15 -10 15 -9 0
-19 6 -22 14 -3 8 -14 13 -24 11 -22 -4 -45 19 -35 36 6 8 2 8 -13 0 -11 -6
-29 -11 -40 -11 -11 0 -33 -7 -48 -15 -16 -8 -37 -15 -46 -15 -10 0 -18 -4
-18 -9 0 -5 -10 -11 -23 -15 -28 -7 -89 -86 -96 -124 -9 -51 -1 -278 9 -262
12 19 16 -11 9 -65 l-6 -50 -1 41 c-1 24 -8 44 -15 47 -13 5 -37 131 -37 194
0 97 44 197 114 260 57 51 163 123 213 142 34 14 35 37 2 28 -17 -5 -24 4 -20
25 0 4 -8 12 -19 18 -11 6 -20 18 -20 28 -1 13 -3 12 -13 -6 -13 -23 -30 -21
-21 3 7 18 -23 26 -37 9 -8 -10 -15 -11 -24 -4 -9 8 -14 6 -19 -5 -3 -10 -11
-13 -18 -9 -36 22 -68 14 -113 -30 -24 -24 -46 -39 -48 -32 -5 14 -37 -10 -37
-28 0 -6 7 -2 15 8 8 11 15 15 15 9 0 -7 -13 -21 -30 -33 -16 -12 -30 -28 -30
-36 0 -8 -4 -14 -10 -14 -5 0 -10 -6 -10 -14 0 -7 -7 -27 -15 -42 -8 -16 -15
-41 -15 -56 0 -20 -5 -28 -17 -29 -10 -1 -90 -2 -178 -3 -168 -1 -174 -3 -305
-63 -47 -22 -128 -76 -169 -113 -39 -35 -54 -34 -59 1 -2 13 -8 29 -14 34 -8
7 -9 6 -4 -2 12 -21 -4 -36 -22 -21 -10 7 0 -6 22 -27 21 -22 50 -58 64 -80
14 -22 27 -34 30 -27 2 6 10 12 18 12 8 0 14 4 14 8 0 5 21 20 48 33 26 13 63
37 82 54 20 17 71 44 115 60 70 26 94 30 185 30 58 0 122 -4 143 -8 34 -7 36
-9 22 -24 -16 -15 -73 -25 -80 -12 -3 3 -23 3 -45 -1 -22 -4 -43 -3 -46 1 -8
14 -27 10 -21 -4 3 -9 -6 -14 -32 -15 -64 -4 -81 -6 -81 -13 0 -5 -94 -51
-110 -54 -13 -1 -131 -87 -158 -115 -29 -28 -30 -33 -19 -63 8 -21 12 -109 12
-267 -1 -211 -3 -241 -21 -292 -12 -33 -16 -56 -10 -55 12 2 21 16 56 84 13
26 31 59 39 72 8 13 16 31 17 40 1 9 5 49 9 90 6 55 5 72 -4 67 -7 -5 -11 5
-12 31 -1 21 -2 47 -3 58 -1 11 4 30 12 43 7 12 9 22 5 22 -12 0 60 70 107
104 54 39 149 71 210 70 25 -1 68 -12 97 -25 55 -25 73 -52 73 -110 0 -16 5
-29 10 -29 6 0 10 -15 10 -34 0 -19 5 -38 10 -41 6 -3 10 -19 10 -35 0 -16 5
-32 10 -35 6 -3 10 -17 10 -31 0 -13 4 -24 8 -24 5 0 19 -22 32 -50 13 -27 32
-52 42 -56 10 -3 18 -12 18 -19 0 -8 5 -17 12 -21 7 -4 8 -3 4 4 -4 7 -2 12 3
12 6 0 11 -4 11 -9 0 -5 16 -12 36 -15 19 -4 37 -13 40 -21 6 -15 36 -13 42 3
2 7 11 12 20 12 12 0 11 4 -7 16 -15 11 -19 20 -13 26 7 7 3 22 -12 47 -51 84
-59 115 -53 208 11 174 118 348 268 436 25 15 81 36 124 47 241 62 472 -20
598 -213 61 -94 82 -139 74 -166 -4 -15 0 -19 14 -16 12 2 19 -2 19 -11 0 -8
4 -13 9 -9 13 8 22 -10 23 -46 1 -21 4 -27 12 -19 16 16 30 12 16 -5 -9 -11
-9 -18 3 -35 7 -11 17 -17 20 -13 4 3 7 -1 7 -10 0 -9 6 -17 13 -17 6 0 4 -5
-6 -11 -16 -9 -17 -13 -4 -32 8 -12 13 -32 12 -44 -1 -12 2 -20 7 -17 4 3 8 1
8 -5 0 -5 -4 -13 -10 -16 -5 -3 -10 -11 -10 -18 0 -21 101 87 132 141 17 29
33 50 36 48 10 -10 -48 -140 -93 -211 -45 -69 -54 -95 -35 -95 6 0 10 -7 10
-15 0 -8 4 -15 10 -15 5 0 6 -7 3 -17 -4 -11 -3 -14 5 -9 8 4 10 2 6 -7 -3 -8
2 -17 10 -20 9 -4 16 -11 16 -17 0 -6 -4 -8 -10 -5 -5 3 -10 1 -10 -4 0 -6 8
-11 18 -12 9 0 12 -3 6 -5 -17 -7 -4 -46 12 -40 17 7 18 -6 2 -22 -8 -8 -8
-15 -1 -24 17 -21 2 -161 -18 -174 -5 -3 -9 -15 -9 -27 0 -18 2 -19 10 -7 17
26 11 2 -8 -32 -10 -18 -17 -51 -16 -73 2 -51 -8 -63 -61 -70 -57 -9 -169 15
-320 68 -118 41 -123 42 -245 41 -143 -1 -382 -32 -451 -59 -11 -4 -14 3 -13
30 1 20 -4 42 -12 50 -8 7 -14 18 -14 24 0 11 -61 143 -70 151 -3 3 -11 17
-19 32 -8 15 -18 25 -23 22 -4 -3 -8 2 -8 10 0 8 -8 21 -18 28 -11 7 -24 23
-31 36 -7 12 -16 20 -22 17 -5 -4 -9 -1 -9 5 0 6 -11 15 -25 20 -14 5 -25 13
-25 18 0 4 -23 8 -51 7 -28 0 -53 3 -56 8 -8 13 -25 7 -20 -7 5 -11 -3 -15
-31 -14 -43 0 -65 -4 -72 -14 -3 -4 -27 -8 -53 -9 -26 -2 -47 -5 -47 -8 0 -3
-11 -7 -25 -7 -31 -2 -95 -32 -95 -44 0 -4 -9 -6 -20 -3 -13 3 -20 0 -20 -8 0
-8 -9 -20 -20 -27 -12 -7 -19 -20 -18 -30 2 -9 -2 -16 -8 -15 -6 1 -14 -16
-18 -37 -3 -22 -10 -40 -15 -40 -9 0 -20 -93 -20 -168 0 -17 -5 -41 -11 -52
-7 -14 -7 -20 0 -20 5 0 10 -8 10 -17 0 -9 5 -31 12 -49 9 -26 18 -33 52 -40
l41 -8 -40 -3 c-113 -8 -383 -59 -555 -103 -143 -38 -256 -92 -355 -170 -142
-114 -262 -183 -344 -201 -42 -9 -56 -8 -86 7 -21 10 -34 22 -31 30 7 17 -16
64 -31 64 -7 0 -13 9 -13 19 0 10 -11 29 -25 42 -13 13 -25 30 -25 37 0 6 -4
12 -9 12 -9 0 -20 42 -24 88 -1 12 -8 22 -15 22 -7 0 -10 5 -6 11 3 6 1 15 -6
19 -7 5 -14 21 -16 37 -6 68 -18 128 -25 134 -5 3 -4 20 1 39 8 27 6 36 -8 46
-14 12 -15 15 -3 23 13 8 13 12 1 27 -16 18 -21 93 -8 110 12 16 12 115 -1
147 -8 21 -8 26 0 21 14 -8 15 -12 -37 96 -23 47 -47 110 -53 140 -7 30 -19
78 -28 105 -16 54 -8 112 22 159 24 38 138 337 131 343 -10 10 -50 -36 -80
-92 -14 -27 -35 -90 -45 -140 -16 -74 -20 -82 -20 -48 -1 48 38 175 76 244 13
25 44 63 69 83 24 20 44 46 44 56 0 33 69 164 100 188 43 34 217 117 296 142
104 32 244 50 391 50 l131 0 26 31 c33 39 34 83 4 101 -32 18 -340 18 -433 0
-121 -24 -207 -52 -292 -97 -46 -24 -83 -42 -83 -40 0 3 8 19 18 37 10 18 35
76 57 128 63 156 150 322 250 480 12 19 37 61 55 92 19 31 38 54 42 51 5 -3 7
-11 4 -19 -9 -24 27 -2 64 39 19 22 61 78 92 126 71 108 91 127 155 151 117
44 557 121 716 125 65 2 121 6 124 9 8 8 23 -3 23 -16z m687 -1350 c-3 -8 -6
-5 -6 6 -1 11 2 17 5 13 3 -3 4 -12 1 -19z m-517 -1122 c14 -3 35 -7 47 -9 29
-4 121 -101 144 -152 33 -74 -1 -147 -91 -193 -29 -15 -138 -38 -192 -41 -55
-2 -144 26 -178 57 -26 25 -29 32 -27 92 0 36 7 76 14 90 7 14 13 31 13 37 0
28 109 111 124 96 4 -4 13 2 20 13 14 20 69 24 126 10z m5610 -646 c0 -22 -34
-44 -56 -36 -23 9 -16 31 14 43 39 16 42 15 42 -7z m-5616 -94 c-3 -8 -12 -17
-20 -20 -12 -5 -13 -8 -2 -19 15 -16 39 -12 65 11 18 17 79 42 101 42 9 0 9
-6 0 -22 -26 -46 -44 -61 -108 -91 -57 -26 -78 -30 -180 -34 -82 -3 -111 -1
-100 6 8 6 25 11 38 11 27 0 29 16 3 30 -27 14 -38 13 -45 -6 -3 -8 -2 -12 4
-9 6 3 10 2 10 -3 0 -13 -39 -22 -46 -11 -3 5 -9 7 -13 5 -4 -3 -27 -7 -52
-10 -44 -5 -44 -4 -20 12 43 31 185 83 239 89 28 3 52 10 52 15 0 5 9 6 20 3
11 -4 20 -2 20 4 0 6 9 11 20 11 13 0 17 -5 14 -14z m366 -152 c0 -13 3 -14
13 -5 8 6 17 7 21 3 4 -4 11 -7 14 -7 4 0 22 -6 40 -14 22 -9 29 -17 23 -25
-9 -11 -11 -17 -11 -34 0 -11 -66 -25 -255 -56 -82 -14 -206 -36 -275 -49
-156 -32 -288 -56 -395 -73 -22 -3 -44 -8 -49 -12 -5 -3 -6 0 -2 6 4 7 16 12
27 12 10 0 19 4 19 10 0 5 6 7 14 4 8 -3 17 0 21 5 3 6 11 8 17 5 6 -4 13 -2
17 5 4 6 21 12 37 14 17 2 46 14 65 28 19 13 36 23 39 23 6 -2 12 0 91 25 36
12 73 21 82 21 9 0 17 4 17 9 0 4 69 25 153 45 83 20 177 45 207 56 69 23 70
23 70 4z m5010 -53 c0 -14 -2 -14 -10 -1 -6 9 -10 10 -10 3 0 -20 17 -24 33
-8 13 13 16 13 27 -1 7 -8 10 -17 6 -21 -3 -3 -6 -1 -6 5 0 6 -7 9 -15 6 -21
-9 -19 -24 4 -24 11 0 23 -4 26 -10 10 -16 35 -11 36 8 0 11 2 12 6 4 3 -7 -1
-20 -8 -28 -11 -13 -10 -15 6 -12 14 2 20 -6 27 -32 5 -19 12 -42 15 -50 3 -8
7 -17 8 -20 1 -3 4 -12 7 -20 3 -8 13 -58 23 -110 10 -52 21 -99 25 -105 4 -5
10 -23 13 -40 3 -16 15 -64 27 -104 21 -80 20 -105 -8 -116 -9 -4 -83 -9 -163
-11 -122 -4 -148 -2 -158 10 -7 9 -20 57 -28 108 -18 110 -27 474 -13 483 6 4
7 12 4 18 -5 8 -3 8 7 0 17 -17 29 -16 29 0 0 8 10 19 23 25 17 8 18 11 5 11
-11 1 -15 6 -12 16 4 10 13 13 26 9 14 -4 18 -2 14 5 -4 6 -2 11 4 11 6 0 8 4
5 10 -3 6 1 7 9 4 9 -3 16 -14 16 -23z m-4855 -11 c3 -5 4 -10 1 -10 -2 0 -12
-3 -20 -6 -12 -5 -15 -2 -10 10 7 18 20 21 29 6z m524 -57 c-10 -53 -57 -188
-85 -242 -60 -119 -236 -320 -268 -308 -7 3 -18 -4 -24 -14 -7 -10 -16 -19
-22 -19 -5 0 -26 -11 -46 -25 -20 -14 -45 -25 -55 -25 -11 0 -19 -4 -19 -10 0
-5 -10 -10 -22 -10 -22 1 -22 1 -3 12 27 15 33 27 28 49 -5 18 5 24 36 20 8
-2 10 2 5 11 -13 21 -13 38 -1 40 7 0 17 2 22 2 6 1 21 8 35 16 14 8 29 13 33
12 4 -1 1 8 -8 21 -8 13 -12 27 -8 31 4 4 0 4 -9 1 -9 -4 -19 -2 -22 3 -10 16
4 41 20 35 8 -3 14 0 14 6 0 6 -9 11 -20 11 -11 0 -20 4 -20 10 0 5 7 7 15 4
11 -4 15 1 16 17 1 45 8 64 28 81 12 9 21 23 21 30 0 8 9 24 20 36 12 12 16
22 10 22 -6 0 -8 5 -4 11 3 6 0 15 -7 20 -11 8 -8 14 14 32 15 13 27 33 27 44
0 12 7 28 15 35 9 7 21 18 28 23 7 6 26 12 42 14 17 1 35 6 40 10 14 8 135 39
161 40 20 1 21 -2 13 -46z m4561 -15 c0 -15 4 -29 9 -32 4 -3 14 -34 21 -68 7
-35 17 -68 21 -74 5 -6 10 -28 12 -50 2 -21 10 -52 17 -69 7 -16 15 -48 16
-69 2 -22 9 -43 16 -47 10 -7 10 -9 -2 -9 -10 0 -11 -3 -4 -8 6 -4 14 -20 17
-37 3 -16 8 -45 12 -62 6 -30 4 -33 -19 -33 -22 0 -30 10 -56 65 -16 35 -30
68 -30 73 0 5 -8 36 -19 68 -18 57 -26 114 -37 254 -3 36 -7 71 -9 78 -2 6 0
12 5 12 5 0 8 9 7 20 -1 11 -6 20 -12 20 -5 0 -3 4 5 10 18 11 30 -5 30 -42z
m-457 -53 c-3 -10 1 -15 12 -15 13 0 16 -6 11 -24 -3 -13 -1 -26 4 -28 14 -4
34 -116 45 -248 18 -217 18 -210 0 -210 -9 0 -14 -4 -11 -9 8 -12 -29 -21 -45
-10 -7 4 -21 3 -31 -2 -21 -11 -54 13 -43 31 3 5 -3 10 -14 10 -10 0 -27 3
-35 6 -14 5 -14 9 -4 22 11 13 11 14 -1 8 -10 -7 -12 -3 -6 13 4 12 2 21 -4
21 -6 0 -11 -6 -11 -12 0 -10 -3 -9 -9 1 -5 8 -3 27 6 48 8 19 10 32 5 29 -6
-3 -12 0 -15 7 -7 18 -3 32 7 29 5 -2 4 3 -3 11 -9 12 -9 16 1 20 10 3 8 10
-7 27 -11 13 -15 20 -8 17 6 -4 14 -3 18 3 3 5 1 10 -6 10 -7 0 -5 6 6 13 10
8 15 19 12 24 -4 6 0 16 8 23 11 9 12 16 4 26 -6 7 -7 19 -3 26 5 7 9 15 10
18 11 37 18 49 24 45 5 -3 6 3 3 14 -3 12 2 20 16 24 12 3 21 10 21 17 0 6 -4
8 -10 5 -5 -3 -10 -1 -10 4 0 14 17 14 25 1 4 -6 11 -5 19 3 8 6 11 16 8 21
-3 5 0 6 6 2 6 -4 9 -13 5 -21z m-6195 -278 c16 -7 36 -7 74 1 44 11 53 10 70
-4 10 -10 18 -13 18 -8 0 5 5 1 11 -9 6 -9 14 -15 19 -12 5 3 14 -10 21 -28 6
-19 25 -42 41 -53 15 -10 34 -31 41 -46 6 -16 20 -28 29 -28 10 0 18 -7 18
-15 0 -9 12 -20 26 -25 16 -6 23 -15 18 -22 -6 -10 -4 -11 7 0 7 6 17 12 21
12 4 0 8 -6 8 -12 0 -15 45 -38 72 -38 10 0 18 -4 18 -10 0 -5 9 -10 20 -10
11 0 20 -6 20 -14 0 -11 -9 -13 -34 -9 -19 3 -36 1 -40 -6 -4 -7 1 -11 13 -11
30 0 51 -11 51 -27 0 -8 4 -12 9 -8 5 3 12 -4 16 -15 5 -16 12 -19 32 -14 18
5 24 3 19 -5 -4 -6 -2 -11 3 -11 6 0 11 -7 11 -15 0 -42 -158 -1 -340 87 -90
43 -116 62 -186 132 -79 80 -117 134 -148 208 -17 41 -14 42 42 15z m1677
-125 c-3 -3 -11 0 -18 7 -9 10 -8 11 6 5 10 -3 15 -9 12 -12z m-21 -32 c-6 -5
-24 21 -24 34 0 6 6 1 14 -10 8 -10 12 -21 10 -24z m-494 -6 l25 -15 -31 4
c-24 2 -31 0 -27 -11 5 -10 -2 -13 -28 -11 -19 2 -40 0 -47 -5 -6 -4 -16 -5
-21 -2 -5 4 -11 0 -13 -6 -6 -18 -152 -18 -170 0 -10 10 -9 12 3 14 39 4 112
8 181 10 64 2 78 6 82 20 5 22 13 22 46 2z m230 -51 c0 -5 -14 -9 -30 -10 -17
-1 -30 2 -30 7 0 6 14 10 30 10 17 0 30 -3 30 -7z m-95 -21 c10 2 20 -2 22 -8
4 -11 -94 -30 -142 -28 -11 1 -22 -2 -25 -6 -3 -4 -27 -10 -55 -14 -53 -7 -52
4 3 22 25 9 31 8 27 -1 -4 -7 0 -4 8 6 8 9 25 17 38 18 13 0 40 6 59 13 21 8
37 9 41 4 3 -5 14 -8 24 -6z m215 -26 c0 -8 -5 -18 -12 -22 -7 -4 -8 -3 -4 4
4 7 2 12 -3 12 -6 0 -11 5 -11 10 0 6 7 10 15 10 8 0 15 -6 15 -14z m-487 -43
c-7 -2 -21 -2 -30 0 -10 3 -4 5 12 5 17 0 24 -2 18 -5z m-435 -38 c-3 -3 -9 2
-12 12 -6 14 -5 15 5 6 7 -7 10 -15 7 -18z m185 -76 c-6 -6 -17 -11 -24 -12
-8 -2 -20 -6 -26 -10 -7 -5 -13 -4 -13 0 0 17 24 33 49 33 18 0 22 -3 14 -11z
m5737 -31 c0 15 32 24 40 12 4 -7 15 -8 31 -2 22 8 45 7 156 -1 18 -1 42 -10
53 -20 11 -9 25 -17 30 -17 6 0 10 -7 10 -16 0 -9 8 -18 18 -20 11 -3 18 -16
19 -36 1 -16 7 -36 13 -43 5 -6 7 -15 3 -18 -3 -4 -2 -7 4 -7 6 0 10 -11 9
-24 0 -13 -4 -22 -8 -19 -5 2 -8 -1 -8 -6 0 -6 7 -11 15 -11 8 0 15 -4 15 -10
0 -5 -6 -10 -12 -10 -9 0 -9 -3 1 -9 8 -5 11 -16 8 -25 -3 -8 0 -28 8 -43 8
-15 11 -30 6 -33 -15 -10 -21 -41 -8 -46 14 -5 20 -64 6 -64 -6 0 -6 -7 -1
-17 10 -22 9 -174 -1 -190 -5 -8 -3 -13 6 -13 10 0 14 -12 14 -40 0 -22 -4
-40 -10 -40 -5 0 -4 -7 3 -15 6 -8 8 -20 4 -26 -4 -8 -3 -9 4 -5 7 4 12 3 12
-3 0 -5 -5 -13 -10 -16 -6 -4 -8 -11 -4 -16 3 -5 10 -7 15 -4 5 3 6 -1 3 -9
-3 -9 -10 -16 -15 -16 -4 0 -6 -7 -3 -15 4 -8 13 -15 21 -15 12 0 11 -3 -3
-17 -15 -15 -15 -18 -2 -27 12 -7 13 -15 4 -41 -7 -18 -18 -40 -25 -49 -11
-14 -11 -16 2 -16 8 0 18 6 21 13 4 6 4 1 0 -13 -3 -14 -7 -34 -7 -45 -1 -11
-6 -26 -10 -32 -5 -8 -4 -13 2 -13 6 0 15 -10 22 -21 6 -12 7 -19 1 -15 -5 3
-10 -7 -10 -22 0 -15 5 -30 12 -34 8 -5 7 -11 -2 -20 -18 -18 -15 -39 4 -31
12 4 15 2 12 -8 -3 -8 -12 -13 -21 -13 -12 1 -14 -3 -7 -20 4 -11 13 -20 19
-19 7 2 8 -5 2 -20 -4 -12 -6 -28 -4 -34 3 -7 0 -13 -6 -13 -7 0 -4 -11 6 -27
17 -27 17 -27 0 -14 -10 8 -20 11 -24 7 -3 -3 -1 -6 6 -6 8 0 11 -7 7 -15 -7
-20 4 -46 16 -39 7 5 8 -5 4 -27 -4 -19 -7 -44 -8 -56 0 -13 -4 -20 -9 -17 -5
3 -9 0 -9 -7 0 -6 8 -9 20 -6 11 3 20 1 20 -4 0 -5 -4 -9 -10 -9 -5 0 -7 -7
-4 -15 7 -18 -12 -20 -20 -2 -2 6 -3 1 -1 -13 2 -14 4 -28 4 -32 1 -5 5 -8 11
-8 5 0 7 8 3 18 -5 14 -3 15 7 5 15 -14 22 -43 12 -43 -4 0 -13 -9 -20 -21 -8
-12 -10 -19 -5 -16 4 3 14 -1 21 -9 10 -10 10 -14 1 -14 -7 0 -10 -3 -6 -6 3
-3 2 -17 -3 -30 -9 -23 0 -30 33 -25 4 0 7 -3 7 -9 0 -5 -5 -10 -12 -10 -6 0
-3 -10 8 -22 10 -13 12 -17 4 -10 -8 6 -18 12 -23 12 -12 0 0 -64 13 -68 7 -3
7 -8 -1 -19 -8 -9 -9 -17 -3 -21 6 -4 11 -18 11 -31 2 -23 1 -23 -18 -5 -20
18 -21 18 -8 -9 7 -15 16 -27 21 -27 5 0 6 -6 2 -12 -14 -22 -11 -48 5 -48 12
0 13 -2 3 -9 -10 -6 -10 -10 3 -21 13 -10 15 -9 16 6 0 18 1 18 8 -1 6 -15 3
-24 -15 -35 -24 -17 -25 -15 14 -79 11 -17 10 -20 -3 -15 -19 8 -19 1 0 -36
13 -24 13 -30 1 -37 -10 -6 -11 -14 -4 -33 6 -14 12 -40 14 -59 2 -19 8 -37
13 -40 18 -11 -6 -34 -29 -28 -18 5 -19 3 -8 -10 7 -9 12 -19 12 -22 -1 -3 2
-5 7 -3 5 1 9 -3 9 -9 0 -5 5 -7 12 -3 7 4 8 3 4 -4 -4 -7 -16 -12 -27 -12
-11 0 -17 -5 -14 -10 4 -6 16 -8 28 -4 21 6 21 6 4 -13 -9 -11 -15 -22 -12
-24 7 -7 12 -99 6 -99 -4 0 -5 -20 -3 -44 3 -37 1 -45 -16 -50 -18 -6 -20 -17
-12 -46 1 -3 6 6 11 19 11 28 14 26 23 -12 4 -19 3 -26 -4 -22 -5 3 -10 1 -10
-4 0 -6 5 -11 11 -11 5 0 7 -5 4 -10 -4 -6 -11 -7 -17 -4 -6 4 -8 2 -4 -4 3
-6 2 -13 -4 -17 -6 -4 -7 -11 -4 -17 4 -6 9 -5 15 3 4 7 11 11 14 7 4 -3 1
-15 -6 -26 -11 -18 -10 -24 3 -39 11 -12 14 -23 8 -33 -6 -9 -5 -17 3 -22 9
-6 9 -8 -1 -8 -7 0 -10 -5 -6 -11 4 -8 0 -9 -15 -4 -20 6 -20 4 -10 -18 6 -14
20 -28 30 -30 11 -3 19 -10 19 -17 0 -6 -5 -8 -11 -4 -6 3 -15 0 -20 -7 -13
-21 -11 -32 7 -25 8 3 12 2 9 -4 -3 -6 1 -10 9 -10 9 0 16 -5 16 -11 0 -10 -9
-10 -46 2 -7 2 -11 1 -10 -2 3 -13 -27 -38 -38 -32 -6 3 -8 3 -4 -2 4 -4 3
-14 -3 -21 -8 -9 -5 -11 10 -7 19 5 19 3 8 -26 -12 -32 -37 -43 -37 -15 0 8 5
12 10 9 6 -3 10 -4 10 -1 0 3 -9 10 -20 16 -19 10 -20 9 -15 -13 8 -30 -8 -43
-28 -23 -12 12 -16 12 -30 -4 -8 -10 -12 -21 -9 -25 4 -4 -3 -4 -15 -1 -19 6
-23 3 -23 -13 0 -11 8 -25 18 -30 9 -6 12 -11 5 -11 -6 0 -15 5 -18 10 -4 6
-10 8 -15 5 -5 -3 -12 0 -17 8 -4 7 -20 20 -35 30 -25 16 -27 16 -21 0 5 -12
2 -15 -10 -10 -19 7 -22 -4 -7 -19 7 -7 6 -11 -3 -11 -14 0 -16 6 -20 52 -2
30 -40 44 -69 26 -11 -7 -18 -7 -18 -1 0 5 4 10 9 10 15 0 20 39 6 50 -15 12
-9 44 6 34 5 -3 9 2 9 10 0 9 -5 16 -11 16 -6 0 -1 9 12 21 13 11 19 18 13 15
-6 -3 -20 2 -30 10 -13 11 -15 17 -7 20 9 4 8 12 -5 32 -16 26 -16 26 1 13 15
-12 17 -11 17 8 0 14 -4 20 -11 15 -8 -5 -10 3 -5 28 3 19 3 38 -1 42 -15 14
-11 35 5 29 13 -4 13 -1 -3 14 -11 10 -26 29 -33 42 -12 20 -12 23 0 19 9 -4
14 1 14 12 0 10 -4 16 -8 14 -13 -9 -9 10 8 35 14 19 14 25 3 32 -8 5 -16 3
-21 -4 -6 -9 -8 -8 -8 2 0 8 -6 11 -17 7 -14 -6 -14 -4 2 14 16 18 17 23 5 30
-13 8 -13 10 0 10 10 0 11 3 3 8 -13 8 -24 112 -11 112 17 0 7 21 -14 30 l-23
9 23 0 c22 1 32 21 10 21 -7 0 -13 11 -13 25 0 15 6 25 15 25 10 0 11 3 4 8
-6 4 -17 18 -24 31 -11 21 -10 23 3 18 11 -4 14 -2 10 9 -3 8 -12 13 -19 10
-8 -3 -14 -1 -14 3 0 5 7 12 16 15 8 3 12 10 9 16 -6 9 8 14 28 11 5 -1 6 3 2
9 -4 6 -15 8 -26 5 -11 -4 -19 -2 -19 4 0 6 5 11 11 11 8 0 8 4 0 14 -8 10 -9
16 -2 21 6 3 10 17 9 30 -1 13 -6 21 -10 19 -4 -3 -5 -11 -1 -19 3 -8 0 -15
-6 -15 -6 0 -10 23 -10 59 1 51 4 60 24 71 21 11 22 14 7 31 -18 20 -52 26
-52 8 0 -6 8 -8 19 -4 12 3 21 0 25 -10 7 -20 -19 -31 -38 -16 -7 6 -15 9 -17
7 -2 -3 -3 13 -3 35 1 21 -1 41 -6 44 -4 2 -6 28 -5 57 2 44 6 53 23 58 17 4
18 7 6 18 -11 10 -14 10 -14 1 0 -7 -8 -4 -19 7 -16 17 -17 21 -4 35 11 14 12
18 1 22 -10 4 -10 8 2 17 12 9 13 12 1 17 -10 4 -10 7 -1 13 8 5 5 9 -9 13
-13 3 -21 0 -21 -8 0 -7 -7 -18 -15 -25 -10 -9 -15 -9 -15 -1 0 6 5 11 11 11
7 0 9 10 5 25 -4 17 -2 25 6 25 22 0 41 17 34 29 -5 8 -12 7 -22 -4 -23 -22
-37 -18 -32 10 3 14 1 22 -5 18 -5 -3 -6 3 -2 16 5 15 2 21 -10 21 -13 0 -14
4 -5 20 7 14 7 20 0 20 -5 0 -10 9 -10 20 0 11 -4 20 -9 20 -5 0 -7 -10 -5
-22 2 -13 -2 -8 -9 10 -7 19 -16 30 -22 25 -5 -4 -1 4 8 19 20 32 21 38 6 38
-6 0 -19 10 -29 22 -14 17 -15 26 -6 40 9 15 6 21 -12 34 -16 11 -20 20 -14
26 12 12 5 38 -10 38 -6 0 -4 -8 3 -17 13 -16 12 -17 -3 -4 -13 10 -15 18 -8
31 14 25 13 27 -10 33 -11 3 -20 9 -19 14 5 28 -3 64 -18 79 -20 20 -23 36
-10 45 5 4 6 12 2 19 -6 9 -9 9 -16 -1 -6 -10 -9 -8 -9 9 0 12 -4 22 -10 22
-18 0 -11 20 8 21 13 0 14 2 2 6 -23 9 -30 25 -18 47 8 15 8 21 -1 24 -6 2
-11 12 -11 23 0 10 -5 19 -11 19 -5 0 -8 -3 -6 -7 3 -5 -2 -15 -11 -22 -14
-13 -15 -12 -9 8 4 17 2 21 -9 17 -9 -3 -12 -1 -9 4 3 6 12 10 18 10 21 0 40
17 32 29 -5 9 -10 9 -21 0 -12 -10 -13 -9 -7 7 6 17 5 17 -10 5 -15 -12 -17
-12 -11 3 4 10 15 21 26 25 17 6 17 8 3 26 -12 14 -18 16 -21 7 -6 -13 -24 -7
-24 9 0 6 3 8 8 6 4 -3 13 1 20 9 10 11 6 19 -20 45 l-33 31 28 -7 c18 -5 27
-3 27 5 0 7 -6 10 -14 7 -19 -8 -28 3 -15 19 12 14 3 38 -11 29 -4 -3 -10 2
-13 9 -3 8 -1 17 6 19 9 3 9 8 0 18 -20 21 -16 41 6 34 18 -5 18 -3 8 19 -7
14 -16 26 -20 26 -5 0 -5 -6 -1 -12 5 -10 4 -10 -6 -1 -10 9 -9 15 4 29 12 12
14 20 7 27 -15 15 -14 70 1 85 7 7 8 12 4 12 -5 0 -15 -8 -22 -17 -11 -16 -12
-14 -10 17 1 19 -2 45 -6 58 -6 17 -4 22 9 22 13 0 14 3 5 12 -8 8 -15 8 -27
-2 -12 -10 -15 -10 -15 4 0 9 5 16 10 16 6 0 15 10 19 23 11 27 -13 50 -43 41
-17 -5 -15 -2 7 15 30 25 35 41 12 41 -22 0 -18 17 7 34 12 9 18 16 12 16 -5
0 -15 -5 -22 -12 -7 -7 -12 -10 -13 -8 -5 28 -4 48 2 44 14 -8 22 18 8 28 -10
7 -7 7 9 3 13 -4 22 -2 22 4 0 6 -6 11 -13 11 -8 0 -14 7 -14 15 0 17 13 20
22 5 13 -22 27 -9 22 19 -5 25 -2 31 16 36 12 4 33 14 47 23 14 9 27 17 30 17
3 1 32 5 65 9 33 5 69 11 80 13 11 2 45 6 75 8 30 1 56 8 58 14 2 7 12 5 28
-5 13 -9 24 -12 24 -6z m-2965 -55 c50 -3 107 -5 128 -4 25 0 40 -5 43 -14 4
-8 11 -15 16 -15 6 0 8 7 4 15 -6 17 9 21 19 5 5 -8 11 -8 20 0 9 7 20 8 32 2
10 -6 47 -17 83 -25 64 -14 149 -42 182 -58 10 -5 22 -9 28 -9 13 0 179 -81
209 -102 17 -12 28 -14 37 -7 8 7 14 7 19 -1 3 -5 0 -10 -7 -10 -10 0 -9 -3 2
-10 9 -5 19 -5 26 1 12 9 39 -12 29 -23 -3 -3 2 -11 11 -18 13 -12 17 -11 25
1 7 11 9 11 9 -3 0 -10 7 -18 15 -18 8 0 15 -4 15 -10 0 -5 7 -10 15 -10 8 0
25 -10 38 -22 12 -13 29 -23 37 -23 8 0 14 -8 14 -17 -1 -10 1 -17 5 -16 17 3
61 -23 61 -37 0 -9 5 -13 10 -10 6 3 10 -1 10 -9 0 -8 10 -18 23 -22 12 -4 28
-15 35 -25 7 -11 20 -19 28 -19 8 0 19 -11 24 -25 5 -14 12 -25 16 -25 3 0 3
7 0 15 -5 13 -1 12 18 -2 19 -14 22 -21 13 -32 -10 -12 -9 -14 4 -9 10 4 27
-4 43 -18 30 -29 33 -39 9 -30 -14 4 -13 3 2 -7 30 -18 105 -94 99 -100 -3 -2
7 -7 21 -11 14 -4 25 -14 26 -24 0 -10 3 -12 6 -4 3 8 17 0 40 -23 19 -19 40
-35 45 -35 6 0 8 -7 4 -15 -3 -9 0 -15 8 -15 20 0 40 -27 26 -35 -17 -10 9
-37 30 -30 13 4 17 0 16 -17 -1 -13 11 -35 26 -51 16 -16 28 -35 28 -43 0 -8
4 -14 9 -14 5 0 17 -3 27 -7 13 -5 15 -3 9 7 -6 9 -4 11 4 5 7 -4 10 -16 8
-27 -4 -13 -1 -18 7 -15 6 3 13 -3 14 -12 1 -9 10 -81 21 -161 11 -80 25 -194
31 -255 7 -60 18 -153 26 -205 15 -96 76 -352 95 -401 6 -15 12 -45 14 -68 1
-23 8 -48 15 -56 14 -17 5 -51 -17 -59 -14 -6 -14 -4 -2 10 12 14 10 15 -19
11 -18 -3 -30 -1 -27 4 4 5 1 17 -4 26 -8 14 -11 15 -11 3 -1 -10 -4 -9 -10 5
-7 16 -9 17 -9 3 -1 -10 -9 -16 -21 -15 -13 1 -16 5 -10 11 19 19 10 29 -11
10 -16 -15 -22 -16 -28 -5 -5 8 -14 10 -21 6 -9 -6 -9 -3 -1 14 10 18 9 21 -9
21 -13 0 -18 -4 -14 -11 4 -8 0 -7 -15 1 -12 6 -25 18 -28 26 -3 9 -13 12 -24
9 -12 -4 -22 1 -30 13 -7 11 -20 17 -29 15 -9 -3 -23 2 -31 10 -8 7 -26 17
-41 20 -19 5 -25 12 -22 22 6 14 -6 19 -43 18 -7 -1 -11 3 -8 7 2 4 -8 13 -23
21 -15 7 -41 24 -58 36 -17 13 -35 23 -41 23 -5 0 -18 8 -27 19 -9 10 -30 21
-46 25 -17 3 -37 14 -47 25 -9 11 -21 17 -26 14 -6 -4 -8 0 -4 10 7 19 -15 39
-36 31 -8 -3 -18 0 -23 7 -5 9 -2 10 9 6 11 -4 14 -2 10 9 -3 7 -14 14 -25 14
-10 0 -16 5 -13 10 3 6 0 10 -8 10 -10 0 -13 7 -10 20 4 16 2 19 -11 14 -17
-7 -49 24 -40 38 2 3 -9 16 -26 28 -17 12 -28 26 -24 31 3 5 0 8 -7 7 -7 -2
-13 4 -14 12 0 10 -10 15 -32 15 -18 0 -32 4 -31 10 2 18 -14 45 -23 39 -13
-7 -40 15 -33 27 3 5 -11 17 -31 26 -21 10 -34 22 -31 30 3 7 2 12 -2 12 -24
-4 -42 2 -36 12 6 11 -60 81 -69 73 -8 -9 -67 67 -61 79 3 7 -2 3 -10 -7 -12
-15 -16 -16 -16 -5 0 8 -12 25 -25 38 -21 19 -24 20 -18 5 6 -16 4 -17 -9 -7
-8 7 -19 9 -23 5 -5 -4 -5 -1 -1 6 4 6 2 12 -4 12 -6 0 -9 4 -6 9 4 5 -7 12
-24 16 -17 4 -28 11 -24 16 3 5 0 9 -5 9 -6 0 -11 6 -11 13 0 6 -17 20 -38 29
-21 10 -46 25 -57 33 -11 9 -14 14 -7 10 7 -4 12 0 12 10 0 9 -4 14 -8 11 -5
-3 -23 4 -40 14 -22 14 -32 16 -32 7 -1 -6 -8 0 -16 16 -8 15 -21 27 -30 27
-8 0 -17 6 -20 14 -3 7 -16 12 -30 10 -19 -2 -22 1 -15 10 13 16 -3 41 -26 41
-10 0 -17 6 -16 13 2 6 -5 12 -16 12 -10 0 -24 7 -31 15 -7 8 -20 15 -30 15
-10 0 -28 11 -41 25 -13 13 -32 25 -43 25 -14 0 -17 5 -13 21 4 15 2 19 -9 15
-8 -3 -24 5 -36 19 -21 25 -45 35 -32 14 5 -8 1 -8 -14 0 -15 8 -23 7 -31 -3
-6 -7 -7 -17 -3 -22 4 -5 -3 0 -15 10 -13 11 -23 24 -23 30 0 6 4 5 9 -3 5 -7
14 -10 20 -7 17 11 13 26 -8 26 -10 0 -24 7 -31 15 -10 12 -15 13 -20 4 -9
-14 -30 -3 -30 17 0 8 -4 14 -9 14 -8 0 -20 23 -27 53 -1 4 -3 10 -4 15 -1 4
-2 11 -1 16 1 5 -1 16 -5 25 -18 44 -25 -46 -28 -346 0 -97 -4 -129 -12 -122
-8 6 -11 2 -9 -13 4 -34 4 -34 16 -18 8 11 9 9 3 -10 -9 -35 -14 -38 -28 -17
-17 23 -22 22 -23 -5 0 -13 1 -17 4 -10 3 6 9 9 14 6 6 -3 6 -11 -2 -20 -6 -7
-15 -11 -20 -8 -5 3 -9 0 -9 -5 0 -6 -4 -11 -10 -11 -5 0 -9 4 -7 9 1 5 -2 9
-8 9 -5 0 -9 -4 -8 -8 1 -4 -4 -14 -12 -20 -12 -10 -15 -9 -15 4 0 9 -5 16
-10 16 -6 0 -8 -11 -4 -27 9 -36 13 -40 23 -24 6 10 10 9 15 -5 4 -10 4 -15 0
-12 -4 4 -19 -6 -35 -23 -16 -17 -33 -28 -39 -24 -5 3 -10 0 -11 -7 -2 -34
-11 -63 -22 -71 -8 -6 -3 -7 13 -3 l25 5 -22 -17 c-15 -11 -21 -25 -19 -39 3
-11 -7 -49 -21 -83 -13 -34 -22 -68 -19 -76 3 -7 1 -16 -5 -20 -6 -3 -8 -12
-5 -20 3 -7 1 -16 -5 -19 -5 -4 -7 -11 -4 -16 4 -5 1 -9 -5 -9 -7 0 -8 -6 0
-19 12 -24 13 -31 1 -31 -5 0 -12 8 -14 18 -3 10 -5 6 -6 -10 0 -16 4 -28 12
-29 6 0 -1 -7 -18 -14 -18 -9 -23 -14 -13 -15 15 0 16 -4 7 -27 -7 -19 -7 -29
0 -31 16 -5 13 -22 -4 -22 -8 0 -15 -7 -15 -15 0 -8 -5 -15 -12 -15 -9 0 -9
-3 0 -12 15 -15 15 -40 0 -73 -7 -15 -17 -24 -25 -21 -7 3 -13 4 -13 2 0 -3
-3 -11 -6 -20 -5 -12 0 -16 17 -16 l24 -1 -24 -13 c-15 -8 -19 -15 -11 -18 10
-3 9 -8 -4 -20 -9 -9 -11 -18 -6 -20 5 -2 -3 -16 -19 -33 -26 -28 -27 -32 -13
-53 12 -19 13 -25 2 -35 -10 -9 -11 -9 -6 1 4 6 2 12 -4 12 -14 0 -29 -41 -22
-59 4 -10 1 -13 -9 -9 -9 4 -21 -2 -28 -14 -11 -18 -10 -19 10 -13 23 8 23 7
6 -18 -9 -15 -17 -37 -17 -49 0 -40 -12 -67 -31 -73 -10 -4 -19 -11 -19 -16 0
-6 9 -7 22 -3 l21 6 -21 -36 c-27 -45 -29 -63 -4 -45 15 12 15 11 -1 -7 -15
-16 -19 -17 -28 -4 -9 12 -10 12 -5 -3 3 -10 6 -23 6 -28 0 -6 10 -8 23 -4 22
6 22 6 2 -10 -11 -9 -19 -19 -17 -23 2 -4 -7 -10 -20 -14 -13 -3 -18 -6 -13
-7 14 -1 17 -39 4 -46 -5 -4 -9 -14 -9 -23 0 -13 2 -14 9 -4 7 11 7 -12 2 -75
-1 -7 -7 -10 -14 -7 -10 3 -14 -4 -14 -26 0 -18 5 -30 14 -30 7 0 13 -5 13
-10 0 -7 -6 -7 -19 0 -23 12 -34 1 -20 -20 7 -13 9 -13 9 0 0 13 1 13 10 0 14
-21 12 -30 -6 -30 -8 0 -13 -4 -9 -9 3 -5 1 -12 -5 -16 -5 -3 -10 -14 -9 -23
0 -11 3 -12 6 -4 2 6 10 12 16 12 6 0 -2 -13 -18 -30 -16 -16 -26 -31 -22 -31
4 -1 12 -2 19 -3 6 0 12 -8 13 -17 2 -12 -4 -15 -22 -13 -20 2 -22 0 -12 -12
8 -10 8 -14 1 -14 -6 0 -9 -6 -6 -14 3 -8 15 -12 27 -10 19 4 19 3 -3 -8 -16
-8 -24 -20 -22 -30 2 -13 -3 -18 -18 -18 -12 0 -18 -4 -15 -11 4 -6 12 -8 19
-6 6 3 12 -4 12 -14 0 -12 -5 -18 -14 -14 -18 7 -28 -25 -11 -36 11 -7 10 -10
-7 -15 -13 -3 -21 -13 -19 -22 1 -10 -2 -25 -7 -34 -7 -14 -5 -16 8 -11 12 4
15 2 12 -8 -3 -8 -11 -13 -17 -12 -14 4 -15 -14 -1 -22 6 -3 10 -11 10 -18 0
-6 -6 -2 -14 9 -8 10 -18 16 -22 12 -4 -4 -1 -14 6 -23 9 -11 9 -15 1 -15 -7
0 -9 -5 -6 -10 3 -6 -2 -13 -12 -17 -10 -4 -27 -15 -38 -26 -14 -13 -15 -16
-4 -12 9 3 22 -1 29 -10 9 -11 9 -15 1 -15 -7 0 -9 -5 -6 -10 3 -6 -1 -17 -9
-26 -19 -19 -22 -49 -3 -38 8 6 8 3 -1 -9 -8 -9 -11 -21 -7 -27 10 -16 -6 -12
-28 8 -20 16 -20 16 -14 -8 4 -14 7 -31 7 -38 0 -7 4 -11 8 -8 5 3 8 -5 7 -17
-1 -15 -11 -24 -33 -29 -31 -8 -42 -30 -22 -43 16 -10 12 -38 -4 -32 -11 5
-13 0 -6 -25 7 -24 6 -29 -5 -24 -19 7 -40 -20 -27 -36 12 -15 -20 -62 -33
-50 -4 4 -2 -3 4 -15 10 -20 9 -22 -5 -16 -12 4 -15 3 -10 -5 4 -7 2 -10 -6
-7 -14 5 -32 -8 -62 -43 -17 -19 -17 -22 -3 -16 21 8 22 -9 2 -26 -8 -7 -21
-25 -29 -40 -12 -26 -12 -28 3 -23 9 4 5 -3 -9 -16 -14 -12 -18 -19 -10 -15
11 5 10 1 -3 -13 -10 -12 -17 -27 -15 -35 1 -7 -7 -23 -20 -36 -20 -20 -21
-24 -7 -38 18 -18 9 -41 -28 -69 -23 -16 -29 -47 -13 -62 9 -9 26 8 20 19 -4
7 -2 8 4 4 26 -16 12 -34 -24 -32 -42 2 -50 -6 -29 -27 22 -22 18 -30 -7 -16
-20 11 -21 10 -11 -3 10 -11 9 -19 -3 -36 -8 -12 -11 -22 -5 -22 5 0 11 5 13
12 3 7 7 6 11 -5 3 -9 2 -17 -2 -17 -5 0 -7 -9 -4 -20 4 -14 -1 -22 -18 -29
-13 -5 -18 -10 -11 -10 6 -1 12 -6 12 -12 0 -5 -5 -7 -10 -4 -7 4 -9 -3 -6
-19 3 -15 1 -24 -4 -21 -4 3 -11 -3 -15 -13 -13 -30 -16 -80 -5 -87 15 -9 12
-22 -4 -22 -8 0 -12 6 -9 13 2 6 -1 15 -6 19 -6 3 -8 11 -5 17 4 7 2 8 -4 4
-8 -5 -7 -20 3 -53 8 -26 12 -49 10 -52 -3 -2 -5 2 -5 9 0 11 -2 12 -12 1 -11
-10 -9 -15 6 -27 11 -7 16 -17 12 -21 -4 -4 -11 -1 -17 7 -6 10 -11 12 -16 4
-5 -6 -16 -15 -26 -20 -17 -10 -17 -11 2 -35 12 -15 16 -30 11 -38 -5 -9 -10
-10 -14 -2 -4 6 -1 11 6 11 8 1 6 6 -6 15 -11 8 -25 15 -30 14 -6 0 -5 -3 2
-6 6 -2 12 -14 12 -24 0 -11 -4 -17 -10 -14 -16 10 -11 -21 5 -35 9 -7 13 -15
10 -18 -3 -3 -15 3 -27 14 -12 10 -19 14 -15 8 4 -6 -5 -16 -20 -23 -14 -6
-23 -15 -19 -18 3 -4 12 -1 18 5 7 7 18 12 25 12 8 0 6 -7 -7 -20 -16 -16 -25
-18 -40 -10 -14 8 -20 8 -20 0 0 -6 -4 -8 -10 -5 -5 3 -10 1 -10 -5 0 -7 8 -9
21 -5 15 5 20 3 17 -6 -6 -18 -44 -21 -58 -4 -16 19 -31 19 -24 0 4 -9 1 -15
-7 -15 -10 0 -10 -3 -1 -12 19 -19 14 -33 -5 -16 -16 13 -24 14 -49 9 -4 0 0
-8 7 -17 12 -15 11 -16 -11 -9 -20 6 -23 5 -12 -6 19 -20 14 -34 -5 -17 -19
17 -63 8 -63 -12 0 -5 -4 -10 -10 -10 -5 0 -7 7 -4 15 4 8 2 15 -4 15 -5 0
-12 -9 -15 -20 -5 -20 -37 -29 -37 -10 0 6 -4 10 -10 10 -5 0 -7 -7 -4 -15 4
-9 0 -15 -10 -15 -9 0 -16 4 -16 8 0 5 -7 9 -15 9 -8 0 -12 -4 -9 -8 2 -4 0
-10 -5 -13 -5 -4 -12 3 -16 14 -3 11 -10 20 -15 20 -5 0 -6 -8 -3 -17 6 -15 4
-16 -9 -5 -12 9 -18 10 -23 2 -5 -8 -11 -8 -21 1 -8 6 -17 9 -21 5 -3 -3 -2
-6 4 -6 6 0 14 -7 17 -16 3 -9 2 -12 -5 -9 -5 4 -18 1 -27 -7 -15 -12 -16 -11
-3 5 12 15 11 17 -8 17 -11 0 -20 -3 -18 -8 1 -4 -2 -8 -8 -10 -5 -1 -11 3
-11 8 -1 6 -2 16 -3 23 -1 8 -4 7 -11 -3 -5 -8 -10 -10 -10 -5 0 6 -5 3 -10
-5 -8 -13 -10 -12 -10 3 0 10 7 25 15 34 13 12 18 13 33 2 16 -12 16 -12 0 6
-16 17 -19 18 -36 2 -14 -13 -21 -14 -30 -5 -9 9 -12 9 -12 0 0 -7 5 -12 10
-12 16 0 12 -14 -8 -26 -13 -9 -21 -8 -32 4 -13 14 -12 15 3 9 11 -4 17 -1 17
8 0 18 -21 20 -38 3 -8 -8 -12 -9 -12 -1 0 6 -8 10 -17 9 -10 -2 -28 4 -40 12
-31 19 -29 4 3 -29 16 -17 22 -29 15 -33 -6 -4 -11 0 -11 8 0 16 -5 18 -47 20
-13 1 -23 6 -24 11 -1 17 -22 36 -28 27 -3 -5 -18 -12 -33 -16 -27 -6 -33 0
-29 29 1 6 -4 3 -11 -6 -9 -11 -19 -14 -33 -8 -11 4 -16 8 -11 8 5 1 1 9 -8
20 -16 17 -16 19 1 26 10 5 23 7 28 6 6 -1 5 3 -2 10 -6 6 -23 11 -37 12 -14
0 -23 3 -20 8 3 5 -3 9 -12 9 -16 0 -16 -1 0 -19 19 -21 14 -41 -10 -41 -8 0
-12 -4 -9 -10 4 -6 -1 -7 -11 -3 -14 5 -13 8 7 20 20 11 21 13 5 11 -13 -2
-25 6 -33 22 -7 14 -13 18 -13 10 0 -12 -2 -12 -9 -1 -6 9 -11 10 -15 2 -9
-14 -26 -14 -26 0 0 5 5 7 10 4 6 -3 10 -1 10 4 0 10 -14 15 -33 12 -4 -1 -7
6 -5 15 2 9 -3 19 -11 22 -8 3 -11 0 -7 -7 4 -6 2 -11 -3 -11 -6 0 -11 7 -11
15 0 8 -4 15 -10 15 -5 0 -10 -5 -10 -11 0 -8 -4 -8 -15 1 -8 7 -14 27 -13 47
1 29 4 34 21 29 19 -5 19 -4 1 13 -11 10 -22 14 -25 9 -3 -5 -13 -6 -21 -3 -9
4 -18 0 -22 -10 -3 -9 -2 -14 2 -11 4 2 14 1 22 -5 12 -7 12 -9 -4 -9 -11 0
-16 -5 -13 -13 4 -10 -2 -12 -21 -8 -19 3 -22 6 -9 9 13 3 15 10 11 28 -4 15
-2 24 6 24 6 0 8 5 4 12 -5 8 -2 9 9 5 11 -4 17 -1 17 8 0 18 -20 31 -29 17
-4 -7 -11 -7 -21 1 -17 14 -20 38 -5 50 6 5 4 7 -5 6 -29 -3 -40 1 -40 16 0 8
-5 15 -12 15 -6 0 -8 3 -4 8 8 7 13 8 41 11 8 0 15 6 15 12 0 5 -4 7 -10 4 -5
-3 -10 -1 -10 5 0 7 -8 9 -20 5 -25 -8 -26 3 -2 21 15 12 13 12 -16 4 -20 -5
-30 -5 -27 1 4 5 12 9 20 9 23 0 28 20 10 34 -16 12 -16 13 -1 19 9 4 16 12
16 18 0 8 -4 8 -12 2 -9 -7 -22 -5 -43 8 -16 11 -26 19 -21 19 5 0 4 6 -2 12
-10 13 -9 59 3 77 3 6 1 11 -5 11 -6 0 -8 6 -4 13 6 9 4 9 -7 0 -20 -19 -31
-16 -20 6 9 15 7 20 -9 24 -10 3 -21 0 -24 -7 -2 -6 -5 1 -5 17 -1 30 23 38
33 11 5 -13 9 -14 20 -5 11 9 15 9 19 -1 4 -9 6 -9 6 -1 1 17 -16 26 -24 13
-5 -7 -12 -5 -21 7 -18 23 -18 39 0 24 11 -9 15 -7 19 8 4 15 1 18 -12 14 -9
-3 -21 -10 -27 -14 -19 -15 -24 2 -7 27 14 22 14 24 -1 18 -9 -3 -16 -11 -16
-18 0 -6 -5 -4 -10 4 -7 11 -4 17 11 22 17 7 18 10 7 28 -7 11 -20 19 -28 17
-9 -1 -16 6 -16 18 -1 11 -2 24 -3 29 -1 5 -8 3 -16 -4 -12 -10 -15 -10 -15 4
0 24 4 31 15 28 5 -1 1 5 -9 13 -25 19 -40 19 -32 -1 3 -9 2 -12 -5 -9 -6 4
-7 14 -3 24 3 9 8 30 9 46 3 43 3 43 23 48 9 3 -7 3 -35 2 -60 -4 -65 3 -25
27 16 11 21 18 12 18 -9 0 -16 9 -17 20 -1 11 3 20 8 20 6 0 7 5 4 10 -3 6
-17 8 -30 6 -21 -4 -23 -1 -20 25 2 16 7 34 11 40 7 12 -15 60 -33 72 -7 4
-13 17 -13 28 0 14 -4 18 -12 13 -10 -6 -10 -4 0 8 11 14 8 19 -23 33 -33 16
-34 19 -18 31 16 12 16 15 3 24 -8 5 -10 10 -5 10 6 0 -1 7 -15 15 -14 8 -20
14 -15 15 8 0 18 60 10 60 -1 0 -10 -10 -21 -22 -10 -12 -13 -18 -6 -14 6 4
12 3 12 -2 0 -6 -7 -12 -15 -16 -12 -4 -15 3 -15 30 0 21 -4 33 -10 29 -5 -3
-10 -1 -10 4 0 6 6 11 13 12 6 0 3 5 -8 10 -15 8 -21 20 -21 46 0 39 -23 64
-54 58 -12 -2 -17 1 -14 9 3 7 -2 18 -10 25 -8 7 -12 20 -9 28 4 10 2 14 -4
10 -5 -3 -17 3 -27 15 -11 13 -26 18 -40 16 -33 -7 -23 25 12 40 23 10 24 10
3 5 -19 -4 -23 -2 -18 10 3 8 0 14 -6 14 -39 -1 -46 5 -53 38 -6 32 -8 34 -20
18 -12 -16 -13 -15 -8 10 3 18 1 26 -6 22 -5 -3 -19 0 -31 8 -13 10 -16 16 -8
19 7 2 -6 13 -29 25 -23 11 -38 23 -34 27 4 4 0 6 -8 4 -8 -2 -18 -7 -21 -11
-4 -5 -17 5 -29 23 -17 24 -25 29 -31 18 -11 -17 -45 3 -43 25 1 9 -4 18 -11
21 -8 3 -11 -2 -8 -15 3 -11 0 -19 -7 -19 -6 0 -14 9 -17 21 -6 20 -20 21 -67
3 -9 -3 -16 -1 -16 5 0 6 9 11 20 11 11 0 20 5 20 11 0 7 -10 9 -25 7 -14 -3
-25 -1 -25 4 0 4 -11 6 -24 2 -16 -4 -25 -1 -29 10 -5 14 -3 15 13 6 11 -6 20
-7 20 -2 0 12 -38 23 -44 13 -4 -5 -35 -6 -67 -2 -3 1 -15 10 -27 21 -17 16
-22 17 -22 6 0 -21 -54 -14 -58 8 -2 9 -8 14 -13 11 -5 -4 -5 -15 2 -28 9 -20
9 -20 -4 -5 -19 24 -58 37 -82 28 -11 -4 -26 -3 -34 4 -11 8 -15 8 -18 0 -3
-8 -17 -9 -50 -2 -34 8 -47 7 -53 -2 -4 -7 -12 -10 -18 -6 -6 3 -12 1 -14 -5
-5 -16 -96 -18 -103 -2 -2 7 -11 13 -19 13 -7 0 -16 7 -20 15 -3 8 -14 15 -23
15 -10 0 -29 7 -41 16 -19 13 -22 13 -22 0 0 -8 5 -16 11 -18 7 -2 7 -12 0
-31 -6 -15 -8 -33 -6 -40 3 -7 -3 -39 -14 -72 -11 -32 -17 -63 -14 -69 3 -5 1
-6 -6 -2 -6 4 -18 1 -26 -8 -11 -11 -12 -16 -2 -20 6 -4 2 -4 -10 -2 -13 2
-23 -1 -23 -6 0 -14 -40 -48 -57 -48 -7 0 -12 -3 -12 -7 4 -25 -3 -43 -16 -43
-15 0 -41 -33 -47 -60 -5 -22 -26 -42 -37 -35 -6 3 -18 -9 -27 -26 -13 -26
-14 -33 -2 -41 10 -7 10 -8 -2 -7 -21 3 -68 -21 -74 -38 -3 -8 -1 -11 4 -8 6
3 10 1 10 -4 0 -6 -6 -11 -13 -11 -19 0 -70 -56 -63 -68 4 -6 2 -13 -3 -17 -6
-3 -8 -22 -6 -42 3 -35 -15 -80 -28 -67 -3 3 -3 -3 0 -15 3 -11 14 -23 25 -27
20 -6 20 -25 0 -32 -7 -2 -10 2 -7 10 4 9 -2 14 -14 14 -19 0 -19 -1 -3 -21 9
-11 21 -23 26 -26 4 -4 5 -16 1 -28 -4 -14 -2 -23 9 -27 8 -3 12 -12 9 -20 -3
-7 2 -17 11 -20 9 -3 15 -16 14 -29 -2 -17 -6 -21 -14 -14 -8 7 -15 6 -20 -2
-4 -8 -3 -9 5 -5 9 6 10 0 5 -20 -5 -19 -4 -25 5 -20 6 4 11 2 11 -3 0 -6 -7
-11 -16 -11 -9 0 -14 -7 -12 -17 2 -11 11 -17 21 -15 9 2 17 -2 17 -8 0 -6 -4
-9 -9 -5 -6 3 -15 -4 -22 -16 -9 -18 -9 -21 4 -16 11 4 13 0 9 -15 -3 -11 1
-24 9 -29 11 -7 10 -9 -3 -9 -20 0 -24 -15 -8 -25 6 -4 8 -11 5 -16 -4 -5 -1
-9 5 -9 6 0 8 -4 5 -10 -3 -5 -1 -19 6 -31 10 -19 9 -21 -5 -16 -21 8 -34 -22
-15 -33 7 -5 16 -7 19 -5 4 2 4 -9 2 -25 -2 -17 -8 -28 -12 -25 -4 3 -10 -6
-12 -20 -3 -13 -2 -22 2 -20 5 3 10 -2 14 -10 3 -9 0 -15 -10 -15 -9 0 -12 -5
-8 -11 3 -6 1 -14 -5 -18 -9 -6 -9 -15 -1 -35 9 -23 13 -26 25 -16 18 15 19 7
3 -19 -11 -18 -13 -18 -24 -3 -7 9 -16 14 -20 10 -4 -4 -1 -14 6 -23 7 -9 10
-18 7 -21 -3 -3 3 -21 14 -40 16 -29 16 -34 3 -34 -10 0 -12 -5 -7 -12 10 -17
10 -52 -1 -59 -4 -4 -3 -16 3 -28 10 -18 9 -20 -6 -14 -16 6 -16 5 -5 -9 11
-14 10 -20 -7 -37 -12 -12 -21 -31 -21 -43 0 -21 0 -21 16 -2 14 18 15 18 4
-5 -7 -12 -10 -32 -7 -42 4 -15 0 -19 -21 -20 l-27 -1 25 -8 c24 -7 24 -8 5
-15 -11 -5 -24 -15 -29 -23 -8 -13 -11 -13 -22 3 -8 10 -17 15 -21 11 -5 -5 2
-15 14 -23 17 -11 23 -25 23 -50 0 -19 -4 -32 -9 -29 -5 3 -7 16 -5 29 2 12 2
16 -2 10 -3 -7 -13 -13 -21 -13 -8 0 -13 -6 -10 -13 3 -7 -1 -21 -9 -31 -7
-11 -11 -23 -8 -27 3 -5 -2 -6 -11 -3 -13 5 -15 2 -9 -20 4 -16 2 -26 -5 -26
-6 0 -11 7 -11 15 0 8 -5 15 -11 15 -5 0 -8 -4 -4 -9 3 -5 0 -13 -7 -17 -8 -5
-6 -10 8 -16 14 -6 10 -7 -13 -4 -34 6 -52 -16 -33 -39 5 -6 7 -15 3 -18 -3
-4 -1 -7 6 -7 7 0 10 -4 6 -10 -3 -5 -12 -7 -20 -4 -7 3 -22 -4 -31 -15 -13
-15 -21 -18 -31 -9 -9 7 -13 7 -13 -1 0 -6 6 -11 13 -11 6 -1 1 -10 -13 -22
-14 -12 -18 -19 -8 -15 9 3 22 -1 30 -10 11 -15 11 -16 -4 -10 -14 5 -18 1
-18 -14 0 -17 -4 -19 -35 -13 -24 4 -35 3 -35 -6 0 -7 7 -10 15 -6 17 6 18 4
9 -19 -6 -14 -8 -13 -21 5 -16 23 -35 27 -27 5 4 -8 1 -15 -5 -15 -6 0 -11 5
-11 11 0 8 -5 8 -15 -1 -18 -15 -20 -35 -3 -24 6 4 8 3 5 -3 -4 -6 -22 -9 -42
-7 -20 1 -41 -4 -49 -12 -22 -21 -27 -17 -14 11 6 14 16 25 21 25 6 0 7 3 4 6
-4 4 -13 1 -22 -6 -11 -9 -15 -9 -15 -1 0 7 -4 9 -10 6 -5 -3 -10 -11 -10 -16
0 -6 5 -7 10 -4 6 3 10 2 10 -3 0 -15 -54 -26 -58 -12 -3 7 -12 5 -25 -7 -19
-16 -20 -16 -8 0 7 9 10 17 5 17 -5 0 -2 5 6 10 12 8 11 10 -7 10 -12 0 -23 5
-25 10 -2 7 -11 5 -23 -5 -13 -10 -14 -13 -4 -10 9 3 21 0 27 -8 9 -11 8 -14
-3 -14 -8 0 -15 4 -15 8 0 4 -10 5 -21 2 -21 -6 -21 -6 -3 23 13 19 14 25 5
19 -10 -6 -13 -4 -9 6 4 9 -2 14 -18 15 -13 1 -21 -2 -18 -7 6 -10 -7 -12 -30
-3 -13 5 -14 9 -5 20 8 10 8 14 0 14 -6 0 -11 7 -11 15 0 8 -8 15 -19 15 -13
0 -18 7 -18 24 0 18 4 23 15 18 11 -4 8 8 -11 43 -15 26 -25 50 -23 52 2 3 9
-5 16 -16 6 -12 16 -19 21 -15 6 3 3 11 -7 18 -13 10 -15 20 -10 42 18 69 17
74 -7 49 -13 -13 -16 -13 -21 1 -4 10 -2 13 6 8 7 -5 9 1 6 20 -3 14 1 34 8
43 9 12 13 14 14 5 0 -7 5 -10 12 -6 8 5 5 11 -7 20 -10 8 -15 17 -12 21 4 3
-3 18 -15 32 -13 14 -17 21 -9 14 7 -6 20 -9 28 -6 11 4 10 8 -4 19 -17 13
-17 14 4 20 23 6 21 27 -5 54 -11 10 -11 15 -3 18 9 3 9 8 1 17 -8 10 -6 13 7
11 14 -1 18 7 19 37 1 23 -2 33 -7 26 -4 -8 -11 -10 -15 -6 -4 3 -1 14 6 23
10 11 11 17 2 23 -8 5 -5 12 9 25 11 9 18 23 16 31 -3 7 3 22 14 34 15 16 16
21 5 21 -20 0 -29 32 -16 65 5 14 8 30 6 34 -10 15 -14 61 -7 61 11 0 21 52
13 65 -14 21 3 59 20 48 4 -2 5 10 2 27 -4 20 -3 30 5 30 7 0 9 5 5 11 -4 7 0
9 13 5 13 -4 19 -1 20 12 1 9 4 29 7 44 4 15 1 30 -5 34 -8 4 -7 9 2 15 11 7
10 9 -3 9 -20 0 -24 -15 -8 -25 8 -5 8 -11 0 -20 -8 -10 -7 -14 2 -18 7 -3 4
-6 -7 -6 -16 -1 -20 5 -20 32 0 17 8 46 16 63 9 17 15 43 13 57 -1 15 2 29 7
33 5 3 7 10 4 15 -3 5 2 6 11 2 15 -6 15 -4 -1 20 -17 26 -17 27 4 27 11 0 21
1 21 3 0 1 4 17 9 35 6 20 6 30 0 27 -5 -4 -9 5 -9 19 0 14 5 28 10 31 6 4 7
12 3 18 -20 32 -11 53 20 48 14 -2 7 18 -10 29 -13 8 -15 13 -5 17 10 4 10 8
1 19 -8 10 -8 14 0 14 6 0 11 9 11 21 0 16 4 19 23 14 17 -5 18 -4 7 4 -8 5
-11 13 -7 17 4 4 1 14 -6 22 -8 10 -8 13 -1 9 7 -4 15 0 18 9 11 28 6 40 -8
21 -11 -14 -16 -15 -22 -6 -4 7 -2 15 4 17 7 2 12 13 12 24 0 15 4 18 17 14
13 -6 12 -1 -5 17 -14 15 -20 30 -16 40 4 12 1 17 -12 18 -11 0 -14 3 -6 6 6
2 9 10 5 16 -4 7 1 6 10 -2 10 -8 17 -9 17 -3 0 6 -4 14 -10 17 -14 9 -12 62
3 68 8 4 7 6 -3 6 -10 1 -15 12 -16 36 0 20 3 30 6 24 5 -7 10 -8 14 -1 3 6 1
14 -5 18 -8 5 -8 9 1 14 7 5 10 16 6 25 -4 12 -10 14 -19 7 -9 -8 -12 -3 -12
19 0 16 4 29 9 29 4 0 6 7 3 14 -4 11 -1 13 10 9 13 -5 15 -3 8 13 -4 10 -8
36 -9 56 0 21 -5 38 -9 38 -4 0 -2 10 4 22 10 18 8 24 -7 36 -17 13 -17 14 -1
9 14 -5 16 -2 11 17 -3 13 1 37 9 52 13 25 13 30 -2 41 -15 12 -15 14 1 26 10
8 15 17 11 20 -3 4 -2 7 4 7 15 0 24 38 11 46 -6 4 -5 10 3 15 12 8 11 11 -1
19 -13 9 -13 10 0 10 9 0 20 -3 26 -7 5 -5 3 -1 -6 7 -26 27 -23 41 8 30 23
-9 25 -8 10 3 -17 14 -19 32 -5 55 5 6 6 16 2 21 -3 5 4 13 16 16 14 5 19 13
16 26 -3 10 -2 17 2 14 5 -2 19 7 32 21 13 14 20 25 14 24 -22 -5 -27 1 -15
15 7 8 9 15 5 15 -4 0 -2 7 5 15 9 11 9 15 1 15 -7 0 -9 5 -6 11 4 6 13 8 20
5 9 -3 11 2 8 15 -4 14 -1 18 9 14 9 -4 14 2 15 16 1 12 6 25 11 28 12 9 42
76 42 96 0 9 5 13 10 10 6 -4 7 -11 4 -17 -4 -7 -2 -8 4 -4 7 4 12 18 12 32 0
13 5 24 10 24 6 0 10 6 10 14 0 8 17 32 37 53 21 21 38 41 38 45 0 4 15 20 34
37 18 16 30 34 27 40 -4 5 3 12 14 16 11 3 20 11 20 16 0 6 5 7 10 4 6 -3 10
1 10 10 0 9 4 14 9 11 5 -3 20 5 32 19 13 13 30 25 37 25 7 0 15 7 19 16 3 8
11 13 18 10 7 -2 26 8 42 24 15 16 34 30 41 30 6 0 12 4 12 9 0 5 10 7 22 3
16 -4 19 -2 13 8 -6 10 -4 12 8 7 10 -3 17 -2 17 4 0 6 10 9 23 7 16 -2 22 2
21 15 -2 13 3 16 17 12 11 -4 19 -2 19 4 0 6 5 11 11 11 5 0 7 -6 3 -12 -4 -7
2 -5 13 5 11 10 27 15 37 11 9 -3 16 -2 16 4 0 8 26 20 40 18 3 0 22 10 43 22
25 16 37 19 37 11 0 -10 3 -10 12 -1 7 7 20 12 30 12 10 0 18 5 18 11 0 6 7 9
15 5 9 -3 15 0 15 8 0 9 7 12 19 9 10 -3 22 0 25 6 4 5 13 8 21 4 8 -3 15 0
15 6 0 6 3 10 8 9 4 -1 20 4 35 10 15 7 31 11 35 10 4 -1 23 5 42 14 32 15
124 34 143 30 4 -1 7 2 7 7 0 5 30 8 66 7 36 -1 68 3 71 8 4 5 1 6 -5 2 -7 -4
-12 -3 -12 2 0 17 12 20 43 11 18 -5 33 -5 36 0 5 8 49 16 61 11 16 -6 60 -4
60 2 0 4 3 7 8 7 19 -3 33 2 28 10 -3 5 1 12 10 15 12 4 15 2 10 -9 -3 -8 -1
-15 3 -15 5 0 11 6 14 13 3 9 7 9 19 0 8 -7 18 -10 21 -7 3 3 30 -6 61 -20 30
-14 57 -26 60 -26 3 0 14 -8 25 -17 53 -51 87 -77 99 -75 6 2 12 -2 12 -8 0
-5 6 -10 14 -10 7 0 19 -7 26 -15 7 -8 21 -15 31 -15 11 0 19 -5 19 -12 0 -6
3 -9 6 -5 6 6 100 -38 124 -59 8 -7 17 -13 20 -13 3 0 18 -4 33 -10 16 -6 34
-11 41 -11 8 0 19 -6 25 -14 6 -7 43 -24 82 -36 39 -13 77 -29 85 -37 8 -8 14
-12 14 -8 0 3 14 -1 30 -10 17 -9 30 -19 30 -24 0 -5 9 -7 19 -4 11 3 30 -2
43 -11 12 -9 29 -16 38 -16 8 0 28 -7 43 -15 16 -8 50 -17 75 -19 26 -3 72
-11 103 -19 30 -8 67 -13 81 -10 15 3 46 -4 74 -17 40 -18 71 -22 164 -24 125
-3 175 2 350 32 132 22 199 48 315 117 63 39 137 72 175 80 98 20 349 155 494
265 70 53 196 170 196 182 0 4 8 17 18 27 33 38 86 114 111 164 8 15 18 27 23
27 4 0 8 4 8 10 0 5 17 35 37 67 20 31 36 63 36 70 0 7 4 13 9 13 5 0 14 14
19 30 6 17 15 30 19 30 4 0 11 11 14 25 4 15 11 23 18 19 6 -4 9 -1 6 7 -3 8
1 26 9 42 7 15 10 27 7 27 -4 0 0 8 9 18 8 9 19 31 23 47 4 17 10 35 14 40 10
13 34 90 29 91 -2 0 8 15 24 33 15 18 27 45 27 60 0 16 9 39 19 53 11 13 21
42 24 64 4 42 35 96 91 159 20 22 36 48 36 58 0 9 7 17 15 17 8 0 19 9 25 20
6 11 15 20 21 20 6 0 7 -4 4 -10 -3 -5 -2 -10 2 -10 5 0 13 10 18 23 6 12 16
21 23 20 7 -2 12 2 12 9 0 6 8 1 19 -10 23 -27 31 -28 26 -2 -2 13 2 20 11 20
8 0 14 4 14 8 0 13 72 30 100 25 14 -3 66 -8 115 -10z m2510 -305 c2 -20 1
-20 -11 -3 -7 10 -11 22 -8 27 8 13 17 2 19 -24z m940 -1218 c3 -5 1 -10 -4
-10 -6 0 -11 5 -11 10 0 6 2 10 4 10 3 0 8 -4 11 -10z m-6357 -274 c2 -3 -13
-3 -34 -2 -48 5 -46 4 -39 15 5 9 61 -1 73 -13z m322 -29 c0 -7 9 -14 20 -15
45 -4 50 -6 50 -18 0 -10 -6 -11 -22 -5 -13 4 -49 7 -81 5 -32 -1 -55 2 -51 7
3 5 14 9 24 9 11 0 25 7 32 15 16 18 28 19 28 2z m110 -13 c0 -12 -2 -12 -14
-2 -8 7 -12 16 -9 21 7 11 23 -2 23 -19z m5401 -17 c-10 -9 -11 -8 -5 6 3 10
9 15 12 12 3 -3 0 -11 -7 -18z m-3588 -302 c-3 -9 -8 -14 -10 -11 -3 3 -2 9 2
15 9 16 15 13 8 -4z m-23 -35 c0 -5 -4 -10 -10 -10 -5 0 -10 5 -10 10 0 6 5
10 10 10 6 0 10 -4 10 -10z m3740 -580 c0 -5 -2 -10 -4 -10 -3 0 -8 5 -11 10
-3 6 -1 10 4 10 6 0 11 -4 11 -10z m-9000 -24 c0 -2 -7 -6 -15 -10 -8 -3 -15
-1 -15 4 0 6 7 10 15 10 8 0 15 -2 15 -4z m9490 -126 c0 -5 -4 -10 -9 -10 -6
0 -13 5 -16 10 -3 6 1 10 9 10 9 0 16 -4 16 -10z m-29 -264 c-18 -10 -20 -15
-10 -19 8 -3 9 -6 2 -6 -15 -1 -26 16 -18 29 3 6 16 10 28 10 22 -1 22 -1 -2
-14z m-7271 -56 c0 -5 -7 -7 -15 -4 -8 4 -15 8 -15 10 0 2 7 4 15 4 8 0 15 -4
15 -10z m7186 -56 c-4 -9 -9 -15 -11 -12 -3 3 -3 13 1 22 4 9 9 15 11 12 3 -3
3 -13 -1 -22z m-4394 -16 c-8 -8 -9 -4 -5 13 4 13 8 18 11 10 2 -7 -1 -18 -6
-23z m4143 12 c3 -5 -3 -10 -14 -10 -12 0 -21 5 -21 10 0 6 6 10 14 10 8 0 18
-4 21 -10z m220 0 c3 -5 -1 -10 -10 -10 -9 0 -13 5 -10 10 3 6 8 10 10 10 2 0
7 -4 10 -10z m-131 -35 c3 -8 -4 -15 -18 -17 -19 -4 -22 -1 -18 18 4 24 26 23
36 -1z m-6874 -79 c0 -3 -4 -8 -10 -11 -5 -3 -10 -1 -10 4 0 6 5 11 10 11 6 0
10 -2 10 -4z m70 -86 c0 -5 -5 -10 -11 -10 -5 0 -7 5 -4 10 3 6 8 10 11 10 2
0 4 -4 4 -10z m2490 -134 c0 -11 -19 -15 -25 -6 -3 5 1 10 9 10 9 0 16 -2 16
-4z m-54 -101 c-14 -14 -16 -14 -16 -2 0 9 6 17 13 20 19 7 21 -1 3 -18z
m-2266 -86 c0 -16 -18 -18 -30 -4 -7 8 -9 15 -5 15 4 0 1 8 -6 17 -12 14 -10
14 14 -1 15 -10 27 -22 27 -27z m-2635 21 c3 -6 -1 -7 -9 -4 -18 7 -21 14 -7
14 6 0 13 -4 16 -10z m2660 -50 c3 -5 -1 -10 -9 -10 -9 0 -16 5 -16 10 0 6 4
10 9 10 6 0 13 -4 16 -10z m2195 0 c0 -5 -4 -10 -10 -10 -5 0 -10 5 -10 10 0
6 5 10 10 10 6 0 10 -4 10 -10z m-6 -68 c3 -5 -1 -9 -9 -9 -8 0 -12 4 -9 9 3
4 7 8 9 8 2 0 6 -4 9 -8z m-4904 -26 c0 -3 -4 -8 -10 -11 -5 -3 -10 -1 -10 4
0 6 5 11 10 11 6 0 10 -2 10 -4z m2720 -31 c-7 -9 -15 -13 -17 -11 -7 7 7 26
19 26 6 0 6 -6 -2 -15z m2120 -5 c0 -5 -4 -10 -10 -10 -5 0 -10 5 -10 10 0 6
5 10 10 10 6 0 10 -4 10 -10z m-30 -19 c0 -25 -16 -36 -24 -16 -3 8 -1 15 5
15 6 0 7 5 4 10 -3 6 -1 10 4 10 6 0 11 -9 11 -19z m-20 -52 c0 -5 6 -7 13 -3
8 5 8 3 -2 -9 -7 -9 -17 -14 -22 -11 -12 7 -11 34 1 34 6 0 10 -5 10 -11z
m-2005 -18 c-3 -6 -11 -11 -16 -11 -5 0 -4 6 3 14 14 16 24 13 13 -3z m-2015
-147 c0 -2 -7 -4 -15 -4 -8 0 -15 4 -15 10 0 5 7 7 15 4 8 -4 15 -8 15 -10z
m3940 -4 c0 -5 -8 -10 -17 -10 -15 0 -16 2 -3 10 19 12 20 12 20 0z m-1875
-25 c-2 -14 1 -25 6 -25 5 0 9 4 9 9 0 11 38 2 46 -11 4 -6 -2 -8 -14 -4 -12
4 -30 2 -42 -4 -17 -9 -20 -8 -20 8 0 10 -6 24 -12 31 -9 10 -9 12 -1 7 6 -3
14 -2 18 4 10 16 12 12 10 -15z m26 -88 c-10 -9 -11 -8 -5 6 3 10 9 15 12 12
3 -3 0 -11 -7 -18z m1814 -7 c-3 -5 -11 -10 -16 -10 -6 0 -7 5 -4 10 3 6 11
10 16 10 6 0 7 -4 4 -10z m-50 -131 c11 -16 1 -19 -13 -3 -7 8 -8 14 -3 14 5
0 13 -5 16 -11z m-4695 -8 c0 -5 -7 -12 -16 -15 -14 -5 -15 -4 -4 9 14 17 20
19 20 6z m3056 -138 c-7 -7 -26 7 -26 19 0 6 6 6 15 -2 9 -7 13 -15 11 -17z
m44 -89 c0 -2 -7 -4 -15 -4 -8 0 -15 4 -15 10 0 5 7 7 15 4 8 -4 15 -8 15 -10z
m40 -104 c0 -5 -5 -10 -11 -10 -5 0 -7 5 -4 10 3 6 8 10 11 10 2 0 4 -4 4 -10z
m20 -36 c0 -14 -3 -14 -15 -4 -8 7 -15 14 -15 16 0 2 7 4 15 4 8 0 15 -7 15
-16z m1400 -8 c0 -3 -4 -8 -10 -11 -5 -3 -10 -1 -10 4 0 6 5 11 10 11 6 0 10
-2 10 -4z m-3784 -28 c4 -7 3 -8 -4 -4 -7 4 -12 0 -12 -10 0 -10 -3 -15 -6
-11 -7 6 2 37 10 37 3 0 8 -5 12 -12z m3774 -62 c0 -11 -19 -15 -25 -6 -3 5 1
10 9 10 9 0 16 -2 16 -4z m-1168 -103 c-6 -2 -10 -9 -6 -14 3 -5 0 -9 -5 -9
-12 0 -14 13 -4 23 3 4 11 7 17 6 6 0 5 -3 -2 -6z m998 -3 c0 -5 -5 -10 -11
-10 -5 0 -7 5 -4 10 3 6 8 10 11 10 2 0 4 -4 4 -10z m-3780 -44 c0 -3 -4 -8
-10 -11 -5 -3 -10 -1 -10 4 0 6 5 11 10 11 6 0 10 -2 10 -4z m3185 -75 c18
-11 18 -11 -5 -5 -25 7 -40 21 -40 38 0 6 6 3 13 -6 6 -8 21 -21 32 -27z
m-3469 -293 c9 -9 -21 -38 -38 -37 -10 0 -10 2 0 6 21 8 3 22 -23 17 -23 -4
-33 5 -20 18 7 7 73 4 81 -4z m-169 -12 c-14 -11 -15 -15 -5 -19 7 -3 4 -6 -8
-6 -11 -1 -23 2 -27 5 -10 10 17 33 38 33 19 0 19 0 2 -13z m76 -6 c4 -16 0
-20 -19 -20 -22 0 -23 2 -12 20 7 11 16 20 19 20 4 0 9 -9 12 -20z m127 10 c0
-5 -5 -10 -11 -10 -5 0 -7 5 -4 10 3 6 8 10 11 10 2 0 4 -4 4 -10z m60 3 c0
-5 -11 -8 -25 -8 -14 0 -25 3 -25 8 0 4 11 7 25 7 14 0 25 -3 25 -7z"/>
<path d="M6380 16752 c0 -5 -12 -14 -27 -21 -21 -10 -24 -14 -13 -21 16 -10
35 2 51 32 6 12 6 18 -1 18 -5 0 -10 -4 -10 -8z"/>
<path d="M7325 16430 c-3 -5 -1 -10 4 -10 6 0 11 5 11 10 0 6 -2 10 -4 10 -3
0 -8 -4 -11 -10z"/>
<path d="M5218 16393 c7 -3 16 -2 19 1 4 3 -2 6 -13 5 -11 0 -14 -3 -6 -6z"/>
<path d="M5330 16365 c14 -8 30 -14 35 -14 6 0 -1 6 -15 14 -14 8 -29 14 -35
14 -5 0 1 -6 15 -14z"/>
<path d="M5410 16340 c-13 -8 -12 -10 3 -10 9 0 17 5 17 10 0 12 -1 12 -20 0z"/>
<path d="M5284 16257 c3 -10 6 -20 6 -23 0 -2 8 -1 18 2 16 5 16 5 -1 -6 -9
-6 -22 -8 -27 -5 -6 3 -7 -1 -4 -9 3 -9 1 -16 -5 -16 -6 0 -11 5 -11 12 0 9
-3 9 -11 1 -6 -6 -17 -9 -24 -7 -7 3 -15 -6 -19 -21 -6 -22 -11 -26 -31 -22
-18 3 -25 0 -26 -12 -1 -9 -5 -5 -9 9 -7 21 -8 22 -9 5 -1 -18 -9 -20 -64 -22
-107 -4 -202 -15 -213 -25 -3 -4 -12 -4 -20 -1 -8 3 -14 0 -14 -6 0 -5 -12
-10 -27 -10 -33 1 -60 -4 -69 -14 -4 -4 -16 -7 -26 -7 -10 0 -17 -6 -16 -12 2
-8 -5 -12 -18 -10 -14 2 -27 -6 -38 -23 -9 -14 -22 -25 -30 -25 -7 0 -21 -9
-31 -20 -9 -10 -22 -18 -29 -17 -6 1 -10 -3 -9 -10 2 -7 -3 -10 -10 -7 -7 2
-24 -7 -36 -20 -13 -14 -28 -23 -32 -20 -5 3 -9 1 -9 -5 0 -5 -9 -13 -20 -16
-11 -4 -18 -11 -15 -16 4 -5 -1 -16 -9 -25 -11 -10 -16 -12 -16 -3 0 7 -3 9
-6 6 -4 -4 -2 -12 4 -19 7 -9 5 -19 -8 -35 -9 -12 -20 -19 -24 -16 -6 6 -9
-13 -3 -20 1 -2 -4 -11 -12 -21 -7 -9 -15 -31 -17 -48 -2 -18 -8 -36 -12 -40
-5 -5 -7 5 -4 22 3 25 1 29 -12 24 -9 -3 -16 -13 -16 -21 0 -8 5 -11 12 -7 7
4 8 3 4 -4 -11 -19 -33 -14 -32 6 0 10 9 26 19 36 9 10 14 23 10 29 -5 8 -9 6
-11 -5 -4 -22 -22 -24 -22 -3 0 23 -20 18 -21 -5 -2 -33 -4 -38 -13 -47 -4 -4
-6 11 -3 35 3 31 1 45 -9 49 -23 9 -35 -6 -23 -28 7 -15 7 -24 -1 -34 -8 -10
-8 -24 -2 -49 6 -19 8 -37 5 -40 -3 -3 -2 -17 1 -32 l7 -26 26 28 c14 16 22
22 17 14 -11 -19 -6 -70 8 -87 17 -21 28 -15 28 17 0 34 15 40 25 10 3 -11 10
-20 15 -20 5 0 15 -11 22 -25 21 -39 38 -16 47 67 18 160 147 336 301 411 114
56 185 70 315 65 129 -6 187 -25 297 -97 99 -65 187 -182 221 -296 17 -59 10
-125 -18 -170 -19 -30 -19 -30 0 -15 17 13 18 13 10 0 -4 -8 -16 -24 -26 -35
-25 -29 -69 -114 -55 -109 6 3 27 26 46 52 19 26 41 53 48 60 6 7 13 18 13 23
2 15 5 22 23 63 10 22 15 49 11 63 -4 16 -1 25 10 29 8 4 15 18 15 33 0 18 3
22 9 13 7 -11 10 -10 15 3 8 22 8 27 -3 21 -4 -3 -9 31 -10 77 -3 123 -28 264
-60 332 -15 33 -53 87 -84 120 -53 56 -58 59 -78 47 -18 -12 -21 -12 -17 0 4
8 -2 13 -18 13 -13 0 -24 -3 -24 -7 0 -11 -23 -5 -33 7 -5 6 -6 2 -3 -8z"/>
<path d="M6797 16255 c-84 -23 -141 -74 -189 -169 -39 -77 -49 -186 -24 -262
21 -65 80 -142 139 -181 86 -58 227 -54 361 10 85 41 121 74 154 146 21 46 24
64 20 135 -8 144 -74 250 -193 307 -52 25 -71 29 -140 28 -44 0 -102 -7 -128
-14z m4 -164 c17 -14 23 -28 22 -56 -1 -47 -19 -65 -70 -72 -34 -4 -43 -2 -57
18 -52 75 35 167 105 110z"/>
<path d="M4835 15921 c-96 -27 -175 -97 -222 -198 -37 -81 -38 -203 -1 -284
29 -64 79 -124 121 -145 46 -24 196 -29 304 -10 78 13 101 22 140 52 70 53
103 109 113 191 20 162 -49 297 -187 365 -56 27 -78 32 -152 35 -47 1 -99 -2
-116 -6z m-4 -180 c16 -16 29 -39 29 -51 0 -32 -53 -80 -87 -80 -45 0 -79 45
-74 96 0 6 10 23 22 38 28 36 72 35 110 -3z"/>
<path d="M6109 14573 c-1 -5 -1 -11 0 -15 0 -5 -7 -8 -16 -8 -12 0 -14 -3 -6
-11 8 -8 18 -7 37 3 25 13 25 14 6 26 -11 7 -21 9 -21 5z"/>
<path d="M5620 13680 c0 -5 5 -10 10 -10 6 0 10 5 10 10 0 6 -4 10 -10 10 -5
0 -10 -4 -10 -10z"/>
<path d="M11415 12420 c3 -5 10 -10 16 -10 5 0 9 5 9 10 0 6 -7 10 -16 10 -8
0 -12 -4 -9 -10z"/>
<path d="M11540 12060 c0 -5 5 -10 11 -10 5 0 7 5 4 10 -3 6 -8 10 -11 10 -2
0 -4 -4 -4 -10z"/>
<path d="M12135 11760 c3 -5 8 -10 11 -10 2 0 4 5 4 10 0 6 -5 10 -11 10 -5 0
-7 -4 -4 -10z"/>
<path d="M11696 11514 c-9 -24 -7 -28 9 -14 10 9 15 9 15 1 0 -21 26 -11 27
11 2 16 0 19 -6 9 -6 -9 -11 -10 -15 -2 -10 16 -23 14 -30 -5z"/>
<path d="M11720 11470 c12 -23 30 -35 30 -21 0 6 0 14 1 18 0 4 -9 10 -20 15
-19 7 -20 5 -11 -12z"/>
<path d="M11706 11452 c-3 -6 -1 -14 5 -17 15 -10 25 3 12 16 -7 7 -13 7 -17
1z"/>
<path d="M11747 11317 c-3 -9 1 -18 9 -21 16 -6 18 2 5 22 -7 11 -9 11 -14 -1z"/>
<path d="M11810 11090 c0 -5 5 -10 11 -10 5 0 7 5 4 10 -3 6 -8 10 -11 10 -2
0 -4 -4 -4 -10z"/>
<path d="M11840 10860 c0 -5 5 -10 11 -10 5 0 7 5 4 10 -3 6 -8 10 -11 10 -2
0 -4 -4 -4 -10z"/>
<path d="M12215 10860 c-3 -5 -1 -10 4 -10 6 0 11 5 11 10 0 6 -2 10 -4 10 -3
0 -8 -4 -11 -10z"/>
<path d="M12180 10599 c0 -5 5 -7 10 -4 6 3 10 8 10 11 0 2 -4 4 -10 4 -5 0
-10 -5 -10 -11z"/>
<path d="M12170 10540 c0 -5 5 -10 11 -10 5 0 7 5 4 10 -3 6 -8 10 -11 10 -2
0 -4 -4 -4 -10z"/>
<path d="M11882 10328 c0 -7 -4 -24 -8 -38 -7 -24 -7 -24 10 -8 9 10 14 22 11
28 -3 5 -1 10 4 10 6 0 11 5 11 10 0 15 -26 12 -28 -2z"/>
<path d="M11939 10243 c-13 -16 -12 -17 4 -4 9 7 17 15 17 17 0 8 -8 3 -21
-13z"/>
<path d="M11970 10219 c0 -13 14 -17 35 -9 17 6 16 7 -8 12 -15 3 -27 2 -27
-3z"/>
<path d="M7900 11076 c0 -2 7 -7 16 -10 8 -3 12 -2 9 4 -6 10 -25 14 -25 6z"/>
<path d="M3978 10563 c6 -2 18 -2 25 0 6 3 1 5 -13 5 -14 0 -19 -2 -12 -5z"/>
<path d="M4491 10551 c-8 -5 -9 -11 -3 -15 5 -3 12 1 16 9 6 17 6 18 -13 6z"/>
<path d="M2786 10416 c4 -10 1 -16 -7 -16 -9 0 -7 -4 4 -11 10 -6 21 -8 24 -5
4 3 1 6 -5 6 -6 0 -9 6 -6 14 3 8 1 17 -5 21 -7 3 -8 0 -5 -9z"/>
<path d="M4995 10252 c-4 -10 0 -12 11 -8 8 3 18 6 20 6 2 0 4 4 4 8 0 15 -29
9 -35 -6z"/>
<path d="M2805 10240 c-3 -5 -2 -10 4 -10 5 0 13 5 16 10 3 6 2 10 -4 10 -5 0
-13 -4 -16 -10z"/>
<path d="M7667 9993 c-10 -9 -9 -23 1 -23 5 0 9 7 9 15 0 17 -1 18 -10 8z"/>
<path d="M2831 9981 c-9 -6 -11 -14 -4 -26 9 -15 11 -14 15 9 3 14 5 26 4 26
0 0 -7 -4 -15 -9z"/>
<path d="M2794 9906 c25 -20 32 -20 41 2 5 13 4 14 -6 5 -9 -9 -18 -9 -33 -2
-20 10 -20 10 -2 -5z"/>
<path d="M2780 9850 c0 -5 5 -10 10 -10 6 0 10 5 10 10 0 6 -4 10 -10 10 -5 0
-10 -4 -10 -10z"/>
<path d="M7607 9833 c-12 -12 -7 -33 7 -33 8 0 13 7 12 15 -3 19 -11 27 -19
18z"/>
<path d="M2745 9790 c-3 -5 -1 -10 4 -10 6 0 11 5 11 10 0 6 -2 10 -4 10 -3 0
-8 -4 -11 -10z"/>
<path d="M2745 9730 c-3 -5 1 -10 10 -10 9 0 13 5 10 10 -3 6 -8 10 -10 10 -2
0 -7 -4 -10 -10z"/>
<path d="M3305 9730 c3 -5 8 -10 11 -10 2 0 4 5 4 10 0 6 -5 10 -11 10 -5 0
-7 -4 -4 -10z"/>
<path d="M5360 9711 c0 -10 19 -25 25 -20 1 2 -3 10 -11 17 -8 7 -14 8 -14 3z"/>
<path d="M2740 9650 c0 -5 5 -10 11 -10 5 0 7 5 4 10 -3 6 -8 10 -11 10 -2 0
-4 -4 -4 -10z"/>
<path d="M5422 9611 c-11 -7 -11 -9 0 -14 9 -3 15 1 15 9 0 8 -1 14 -1 14 -1
0 -7 -4 -14 -9z"/>
<path d="M2695 9570 c-3 -5 -1 -10 4 -10 6 0 11 5 11 10 0 6 -2 10 -4 10 -3 0
-8 -4 -11 -10z"/>
<path d="M5395 9571 c-3 -5 -1 -12 5 -16 5 -3 10 1 10 9 0 18 -6 21 -15 7z"/>
<path d="M2701 9484 c0 -11 3 -14 6 -6 3 7 2 16 -1 19 -3 4 -6 -2 -5 -13z"/>
<path d="M5513 9355 c0 -8 4 -12 9 -9 5 3 6 10 3 15 -9 13 -12 11 -12 -6z"/>
<path d="M2650 9304 c0 -8 5 -14 10 -14 6 0 10 5 10 11 0 5 6 7 13 3 6 -4 8
-3 4 1 -13 15 -37 14 -37 -1z"/>
<path d="M2633 9245 c0 -8 7 -17 15 -20 21 -8 22 -3 2 17 -13 14 -17 15 -17 3z"/>
<path d="M7310 9186 c7 -7 14 -6 21 1 9 9 7 12 -9 10 -14 -1 -18 -5 -12 -11z"/>
<path d="M2621 9135 c0 -5 6 -19 14 -29 8 -11 15 -15 15 -10 0 6 -7 19 -15 30
-8 10 -14 15 -14 9z"/>
<path d="M2640 9055 c-11 -13 -11 -18 0 -28 10 -9 11 -9 6 1 -4 7 -2 19 4 27
7 8 10 15 7 15 -2 0 -10 -7 -17 -15z"/>
<path d="M5663 9023 c-1 -19 1 -22 8 -12 11 17 12 39 2 39 -5 0 -9 -12 -10
-27z"/>
<path d="M5653 8983 c-7 -3 -13 -9 -13 -14 0 -5 6 -8 13 -6 6 1 11 -6 9 -15
-4 -24 5 -23 17 1 12 21 -5 42 -26 34z"/>
<path d="M3385 8970 c3 -5 8 -10 11 -10 2 0 4 5 4 10 0 6 -5 10 -11 10 -5 0
-7 -4 -4 -10z"/>
<path d="M7245 8950 c3 -5 8 -10 11 -10 2 0 4 5 4 10 0 6 -5 10 -11 10 -5 0
-7 -4 -4 -10z"/>
<path d="M2606 8915 c-8 -23 -8 -27 4 -20 6 3 10 1 10 -4 0 -6 5 -11 11 -11 8
0 7 6 -2 17 -8 9 -12 18 -11 20 2 3 2 7 -1 9 -2 3 -7 -2 -11 -11z"/>
<path d="M5746 8748 c3 -5 10 -6 15 -3 13 9 11 12 -6 12 -8 0 -12 -4 -9 -9z"/>
<path d="M5780 8730 c0 -5 5 -10 10 -10 6 0 10 5 10 10 0 6 -4 10 -10 10 -5 0
-10 -4 -10 -10z"/>
<path d="M2596 8627 c3 -10 9 -15 12 -12 3 3 0 11 -7 18 -10 9 -11 8 -5 -6z"/>
<path d="M7080 8590 c0 -5 5 -10 11 -10 5 0 7 5 4 10 -3 6 -8 10 -11 10 -2 0
-4 -4 -4 -10z"/>
<path d="M5859 8573 c-13 -16 -12 -17 4 -4 9 7 17 15 17 17 0 8 -8 3 -21 -13z"/>
<path d="M5985 8500 c-3 -5 3 -10 15 -10 12 0 18 5 15 10 -3 6 -10 10 -15 10
-5 0 -12 -4 -15 -10z"/>
<path d="M6204 8418 c3 -10 1 -18 -4 -18 -6 0 -10 5 -10 10 0 6 -5 10 -10 10
-6 0 -5 -8 2 -20 7 -11 16 -20 19 -20 13 0 17 27 7 41 -8 11 -9 10 -4 -3z"/>
<path d="M6260 8365 c-8 -9 -8 -15 -2 -15 12 0 26 19 19 26 -2 2 -10 -2 -17
-11z"/>
<path d="M6655 8370 c3 -5 8 -10 11 -10 2 0 4 5 4 10 0 6 -5 10 -11 10 -5 0
-7 -4 -4 -10z"/>
<path d="M6545 8360 c-3 -6 1 -7 9 -4 18 7 21 14 7 14 -6 0 -13 -4 -16 -10z"/>
<path d="M3035 8259 c-11 -17 1 -21 15 -4 8 9 8 15 2 15 -6 0 -14 -5 -17 -11z"/>
<path d="M2930 8239 c0 -5 5 -7 10 -4 6 3 10 8 10 11 0 2 -4 4 -10 4 -5 0 -10
-5 -10 -11z"/>
<path d="M2786 8195 c4 -8 11 -15 16 -15 6 0 5 6 -2 15 -7 8 -14 15 -16 15 -2
0 -1 -7 2 -15z"/>
<path d="M2926 8197 c3 -10 9 -15 12 -12 3 3 0 11 -7 18 -10 9 -11 8 -5 -6z"/>
<path d="M11934 17931 c-36 -22 -84 -80 -112 -136 -11 -22 -66 -137 -123 -255
-57 -118 -143 -290 -191 -382 -49 -93 -88 -171 -88 -174 0 -15 -133 -279 -176
-349 -27 -44 -56 -93 -64 -108 -18 -36 -90 -102 -99 -91 -3 5 -24 19 -46 31
-53 28 -106 99 -129 170 -38 123 -69 210 -87 248 -34 72 -92 128 -171 167 -70
35 -181 64 -199 52 -18 -11 4 -25 30 -19 57 12 301 -116 301 -159 0 -5 -6 -5
-13 0 -7 5 -6 2 3 -6 13 -12 16 -37 15 -125 0 -60 -5 -118 -11 -128 -14 -24
-6 -67 12 -67 8 0 14 -8 14 -18 0 -22 56 -72 81 -72 10 0 24 -9 31 -20 7 -11
21 -20 30 -20 10 0 18 -5 18 -11 0 -5 4 -8 9 -5 5 3 14 -1 21 -9 6 -8 38 -17
71 -21 33 -4 62 -10 64 -15 3 -4 19 -3 35 2 25 9 43 33 45 61 0 4 8 17 18 28
9 11 34 44 54 73 20 28 40 54 45 55 4 2 8 12 8 21 0 10 9 26 19 35 11 10 23
31 26 46 3 16 13 34 21 41 8 6 14 17 14 23 0 18 24 66 33 66 4 0 7 8 7 18 0
24 120 258 156 303 6 8 16 29 24 47 7 17 16 32 21 32 5 0 9 8 9 19 0 10 9 30
20 44 11 14 20 29 19 34 -4 15 13 63 22 63 5 0 9 6 9 14 0 8 24 63 54 123 29
59 61 132 71 160 9 29 21 55 26 59 5 3 19 24 30 47 23 44 42 67 57 67 5 0 16
10 24 22 l14 22 47 -23 c26 -13 47 -27 47 -31 0 -5 13 -17 29 -26 40 -24 37
-46 -23 -174 -24 -50 -57 -111 -81 -150 -5 -8 -10 -17 -10 -20 -3 -18 -19 -57
-30 -70 -7 -8 -27 -42 -44 -75 -17 -33 -42 -78 -56 -100 -24 -40 -54 -101 -59
-120 -3 -11 -38 -91 -61 -140 -105 -225 -120 -272 -102 -340 11 -47 15 -50 62
-67 32 -11 53 -14 59 -8 6 6 17 10 25 10 17 0 87 74 108 115 9 17 19 32 22 35
10 8 57 74 64 90 4 8 16 29 27 45 10 17 29 49 41 73 13 23 26 42 31 42 4 0 8
7 8 16 0 9 17 37 38 63 21 25 49 69 61 96 38 84 44 94 63 114 10 11 18 29 18
39 0 11 6 25 14 31 8 6 23 34 35 61 12 28 26 50 31 50 6 0 10 5 10 11 0 16 43
103 53 107 4 2 7 9 7 16 0 10 53 90 70 106 3 3 21 29 40 57 19 29 43 55 54 59
15 5 16 8 5 16 -11 8 -11 11 -1 15 7 3 21 13 30 23 23 23 62 32 68 15 3 -8 12
-11 19 -8 8 2 32 -8 54 -24 49 -34 48 -48 -10 -167 -45 -92 -59 -116 -69 -116
-6 0 -10 -9 -10 -19 0 -11 -4 -21 -8 -23 -10 -4 -102 -182 -102 -198 0 -7 -11
-25 -25 -42 -14 -16 -25 -35 -25 -42 0 -7 -11 -26 -25 -42 -14 -16 -29 -33
-33 -39 -10 -13 -24 -49 -20 -52 2 -1 -11 -17 -28 -35 -28 -29 -114 -194 -114
-218 0 -5 -8 -14 -17 -19 -10 -6 -14 -11 -10 -11 11 0 -44 -100 -55 -100 -4 0
-8 -8 -8 -17 -1 -10 -16 -43 -35 -73 -20 -30 -38 -63 -41 -72 -4 -10 -10 -18
-15 -18 -5 0 -9 -7 -9 -15 0 -8 -9 -31 -21 -51 -29 -52 -30 -134 -3 -171 23
-31 69 -61 79 -51 3 3 -7 19 -24 35 -16 17 -33 46 -36 65 -6 33 0 47 84 172
50 74 91 138 91 140 0 5 54 93 201 329 49 77 242 413 250 432 2 6 27 53 56
105 83 154 91 250 25 313 -57 55 -158 75 -219 44 -49 -26 -82 -68 -167 -212
-45 -77 -103 -175 -129 -219 -26 -43 -47 -82 -47 -86 0 -5 -3 -10 -7 -12 -13
-5 -103 -147 -103 -160 0 -7 -30 -61 -68 -120 -37 -59 -94 -157 -127 -218 -72
-135 -152 -258 -175 -270 -22 -12 -60 14 -60 41 0 60 106 357 148 417 11 15
35 59 54 97 19 39 83 164 141 278 59 114 116 239 128 277 l21 70 -21 44 c-46
94 -179 145 -257 97z"/>
<path d="M12991 17393 c-58 -11 -98 -53 -186 -196 -91 -147 -112 -180 -254
-386 -101 -145 -101 -145 -223 -331 -53 -80 -105 -155 -117 -167 -25 -26 -26
-33 -7 -33 25 0 156 140 156 167 0 6 8 18 18 25 10 7 31 36 47 63 15 28 33 55
39 60 6 6 16 18 21 27 6 9 31 48 56 85 25 37 59 91 74 118 15 28 35 61 45 75
10 14 18 28 19 33 1 13 35 62 48 70 7 4 13 14 13 22 0 8 13 29 29 47 15 18 40
51 55 73 14 22 38 57 52 79 14 21 52 64 83 96 46 46 63 57 91 58 34 1 69 -14
106 -45 28 -25 23 -111 -11 -169 -13 -23 -22 -43 -20 -46 2 -2 -8 -18 -23 -35
-30 -33 -32 -37 -92 -135 -22 -37 -46 -73 -53 -80 -6 -7 -21 -29 -31 -48 -11
-19 -36 -55 -56 -80 -20 -25 -43 -56 -50 -70 -7 -14 -26 -43 -41 -65 -57 -78
-119 -174 -119 -184 0 -5 -9 -16 -19 -23 -11 -8 -25 -26 -32 -41 -7 -15 -16
-27 -21 -27 -4 0 -8 -6 -8 -14 0 -7 -10 -24 -22 -38 -13 -13 -34 -39 -48 -57
-14 -17 -33 -41 -42 -53 -10 -11 -20 -28 -23 -38 -3 -10 -12 -21 -20 -24 -21
-8 -48 -76 -46 -116 1 -25 12 -45 38 -72 42 -43 63 -50 89 -31 18 13 17 14 -9
8 -34 -9 -57 9 -57 44 0 26 56 135 97 188 79 103 88 117 389 558 255 375 339
549 289 599 -8 8 -15 19 -15 24 0 15 -43 50 -80 65 -43 18 -97 26 -129 20z"/>
<path d="M12545 15920 c-3 -6 1 -7 9 -4 18 7 21 14 7 14 -6 0 -13 -4 -16 -10z"/>
</g>
</svg>
